<svg xmlns="http://www.w3.org/2000/svg" width="17.808" height="34.125" viewBox="0 0 17.808 34.125">
  <g id="apple" opacity="0.404">
    <ellipse id="Ellipse_82" data-name="Ellipse 82" cx="0.545" cy="0.545" rx="0.545" ry="0.545" transform="translate(6.093 28.968)" fill="#fff"/>
    <ellipse id="Ellipse_83" data-name="Ellipse 83" cx="0.545" cy="0.545" rx="0.545" ry="0.545" transform="translate(13.281 22.578)" fill="#fff"/>
    <ellipse id="Ellipse_84" data-name="Ellipse 84" cx="0.545" cy="0.545" rx="0.545" ry="0.545" transform="translate(11.175 20.771)" fill="#fff"/>
    <path id="Path_2356" data-name="Path 2356" d="M129.742,208.666a5.667,5.667,0,0,0-5.228-3.5,5.683,5.683,0,0,0-2.7.684v-1.888a.545.545,0,0,0-1.089,0v1.888a5.647,5.647,0,0,0-4.861-.252A5.662,5.662,0,0,0,112.8,213l3.14,7.582a3.559,3.559,0,0,0,5.329,1.55,3.556,3.556,0,0,0,5.329-1.55l3.14-7.582A5.624,5.624,0,0,0,129.742,208.666Zm-1.006,3.917-3.14,7.581a2.469,2.469,0,0,1-3.954.868.544.544,0,0,0-.739,0,2.467,2.467,0,0,1-3.954-.868l-3.14-7.581a4.575,4.575,0,0,1,4.222-6.324,4.6,4.6,0,0,1,2.9,1.033.579.579,0,0,0,.075.051l.005,0a.54.54,0,0,0,.077.035l.012,0a.536.536,0,0,0,.079.02l.014,0a.5.5,0,0,0,.166,0l.014,0a.543.543,0,0,0,.079-.02l.012,0a.542.542,0,0,0,.077-.035l.005,0a.54.54,0,0,0,.074-.05,4.6,4.6,0,0,1,2.9-1.035,4.574,4.574,0,0,1,4.222,6.324Z" transform="translate(-112.369 -188.651)" fill="#fff"/>
    <path id="Path_2357" data-name="Path 2357" d="M112.94,17.311a.545.545,0,0,0,.545-.545V.545a.545.545,0,1,0-1.089,0V16.766A.545.545,0,0,0,112.94,17.311Z" transform="translate(-112.393)" fill="#fff"/>
    <path id="Path_2358" data-name="Path 2358" d="M170.492,8.955a.545.545,0,0,0,.545-.545V.545a.545.545,0,1,0-1.089,0V8.411A.545.545,0,0,0,170.492,8.955Z" transform="translate(-165.766)" fill="#fff"/>
    <path id="Path_2359" data-name="Path 2359" d="M170.492,143.783a.545.545,0,0,0,.545-.545v-4.356a.545.545,0,1,0-1.089,0v4.356A.545.545,0,0,0,170.492,143.783Z" transform="translate(-165.766 -128.293)" fill="#fff"/>
    <path id="Path_2360" data-name="Path 2360" d="M228.045,13.681a.545.545,0,0,0,.545-.545V.545a.545.545,0,1,0-1.089,0V13.136A.545.545,0,0,0,228.045,13.681Z" transform="translate(-219.141)" fill="#fff"/>
    <path id="Path_2361" data-name="Path 2361" d="M285.6,15.49a.545.545,0,0,0,.545-.545V.545a.545.545,0,1,0-1.089,0v14.4A.545.545,0,0,0,285.6,15.49Z" transform="translate(-272.515)" fill="#fff"/>
    <path id="Path_2362" data-name="Path 2362" d="M343.15,5.445a.545.545,0,0,0,.545-.545V.545a.545.545,0,0,0-1.089,0V4.9A.545.545,0,0,0,343.15,5.445Z" transform="translate(-325.888)" fill="#fff"/>
    <path id="Path_2363" data-name="Path 2363" d="M343.15,100.776a.545.545,0,0,0,.545-.545V90.545a.545.545,0,0,0-1.089,0v9.687A.545.545,0,0,0,343.15,100.776Z" transform="translate(-325.888 -83.465)" fill="#fff"/>
  </g>
</svg>
