<svg xmlns="http://www.w3.org/2000/svg" width="34.125" height="30.418" viewBox="0 0 34.125 30.418">
  <g id="atom" opacity="0.404">
    <path id="Path_2364" data-name="Path 2364" d="M28.938,35.729c-.643-.247-1.328-.471-2.049-.673.186-.725.335-1.431.442-2.111.558-3.54-.059-6.023-1.737-6.992a3.287,3.287,0,0,0-1.667-.425c-1.952,0-4.418,1.45-6.906,3.9-.544-.534-1.09-1.024-1.634-1.464C12.6,25.708,10.141,25,8.463,25.969a4.446,4.446,0,0,0-1.9,3.678.545.545,0,1,0,1.085.1,3.57,3.57,0,0,1,1.357-2.833c1.242-.717,3.318-.027,5.695,1.9.519.419,1.039.887,1.558,1.4a35.27,35.27,0,0,0-3.079,3.8,35.034,35.034,0,0,0-4.958.795,19.778,19.778,0,0,1-.544-2.964.545.545,0,0,0-1.084.107,20.829,20.829,0,0,0,.575,3.132c-.7.2-1.36.415-1.983.654C1.842,37.015,0,38.791,0,40.729s1.842,3.714,5.187,5c.643.247,1.328.471,2.049.673-.186.725-.335,1.431-.442,2.111-.558,3.54.059,6.023,1.737,6.992a3.287,3.287,0,0,0,1.667.425c1.929,0,4.362-1.417,6.821-3.814.527.514,1.056.988,1.583,1.415,1.972,1.595,3.78,2.415,5.263,2.415a3.272,3.272,0,0,0,1.661-.423c1.678-.969,2.3-3.452,1.737-6.992-.107-.68-.256-1.386-.442-2.111a20.928,20.928,0,0,0,3.065-1.086.545.545,0,1,0-.45-.992,19.876,19.876,0,0,1-2.907,1.03,35.044,35.044,0,0,0-1.741-4.56A35.2,35.2,0,0,0,26.6,36.1c4.042,1.132,6.437,2.919,6.437,4.632a3.57,3.57,0,0,1-1.775,2.592.545.545,0,1,0,.628.89,4.446,4.446,0,0,0,2.237-3.482c0-1.938-1.842-3.714-5.187-5Zm-5.011-9.111a2.214,2.214,0,0,1,1.122.279c1.242.717,1.682,2.86,1.206,5.88-.1.647-.243,1.318-.42,2.009A35.216,35.216,0,0,0,20.859,34,35.123,35.123,0,0,0,17.782,30.2q.289-.285.578-.552c2.124-1.957,4.1-3.035,5.567-3.035Zm-6.9,4.367A33.032,33.032,0,0,1,19.442,33.9c-.782-.043-1.576-.065-2.38-.065-.83,0-1.651.023-2.458.069A33.688,33.688,0,0,1,17.023,30.985Zm0,19.579a32.974,32.974,0,0,1-2.5-3.011c.836.049,1.687.074,2.548.074.829,0,1.65-.024,2.459-.07a33.5,33.5,0,0,1-2.5,3.007Zm.044-4.026c-1.17,0-2.293-.045-3.363-.13-.6-.877-1.182-1.8-1.736-2.758-.545-.944-1.046-1.9-1.5-2.843.471-.992,1-1.99,1.568-2.982.555-.961,1.144-1.892,1.755-2.781,1.044-.08,2.137-.123,3.275-.123,1.109,0,2.175.041,3.194.117.612.891,1.2,1.829,1.768,2.8s1.092,1.981,1.561,2.968c-.452.94-.95,1.885-1.493,2.824-.554.959-1.141,1.889-1.752,2.776-1.068.084-2.166.128-3.278.128ZM12.3,46.272a32.547,32.547,0,0,1-3.718-.64,32.9,32.9,0,0,1,1.3-3.542q.533,1.055,1.138,2.1Q11.638,45.264,12.3,46.272Zm.086-11.1q-.666,1.015-1.3,2.1-.646,1.119-1.211,2.246a33.4,33.4,0,0,1-1.364-3.685A32.555,32.555,0,0,1,12.385,35.176Zm-11.3,5.553c0-1.7,2.369-3.482,6.372-4.614a35.538,35.538,0,0,0,1.8,4.694,35.023,35.023,0,0,0-1.736,4.553C3.484,44.23,1.089,42.443,1.089,40.729ZM10.2,54.841a2.214,2.214,0,0,1-1.122-.279c-1.242-.717-1.682-2.86-1.206-5.88.1-.647.243-1.318.42-2.009a35.023,35.023,0,0,0,4.8.771,35.1,35.1,0,0,0,3.161,3.9q-.245.24-.491.466C13.641,53.764,11.664,54.841,10.2,54.841ZM26.187,48.7c.476,3.019.037,5.162-1.206,5.88s-3.318.026-5.695-1.9c-.5-.4-1-.854-1.5-1.343a35.122,35.122,0,0,0,3.163-3.89,35.562,35.562,0,0,0,4.82-.763C25.943,47.379,26.085,48.052,26.187,48.7Zm-.714-3.061a33.425,33.425,0,0,1-3.728.635q.663-1.011,1.29-2.1.6-1.041,1.131-2.088A32.9,32.9,0,0,1,25.473,45.639Zm-1.3-6.109q-.561-1.117-1.2-2.233-.634-1.1-1.313-2.131a32.738,32.738,0,0,1,3.889.659A33.086,33.086,0,0,1,24.172,39.53Z" transform="translate(0 -25.528)" fill="#fff"/>
    <path id="Path_2365" data-name="Path 2365" d="M200.223,197.392a2.723,2.723,0,1,0,2.723,2.723A2.726,2.726,0,0,0,200.223,197.392Zm0,4.356a1.634,1.634,0,1,1,1.634-1.634A1.636,1.636,0,0,1,200.223,201.748Z" transform="translate(-183.16 -184.914)" fill="#fff"/>
  </g>
</svg>
