<svg xmlns="http://www.w3.org/2000/svg" width="16.86" height="19.821" viewBox="0 0 16.86 19.821">
  <g id="avatar" transform="translate(-36.073)">
    <g id="Group_1196" data-name="Group 1196" transform="translate(36.073)">
      <path id="Path_2115" data-name="Path 2115" d="M141.495,10.155h.138a4.163,4.163,0,0,0,3.032-1.19c1.656-1.694,1.38-4.6,1.35-4.875A3.931,3.931,0,0,0,143.928.55,5.164,5.164,0,0,0,141.615,0h-.073a5.187,5.187,0,0,0-2.314.535,3.937,3.937,0,0,0-2.111,3.555c-.03.277-.305,3.181,1.35,4.875A4.145,4.145,0,0,0,141.495,10.155Zm-3.23-5.967c0-.012,0-.023,0-.031a3.017,3.017,0,0,1,3.268-3.1h.052a3.025,3.025,0,0,1,3.268,3.1.069.069,0,0,0,0,.031c0,.027.305,2.681-1.062,4.078a2.963,2.963,0,0,1-2.215.835h-.043a2.953,2.953,0,0,1-2.21-.835C137.968,6.877,138.261,4.211,138.265,4.188Z" transform="translate(-133.139)" fill="#fff"/>
      <path id="Path_2116" data-name="Path 2116" d="M52.932,264.1v-.012c0-.031,0-.062,0-.1-.025-.773-.078-2.58-1.859-3.157l-.041-.012a12.117,12.117,0,0,1-3.407-1.475.572.572,0,0,0-.772.129.51.51,0,0,0,.135.734,13.077,13.077,0,0,0,3.748,1.627c.956.324,1.063,1.3,1.092,2.186a.742.742,0,0,0,0,.1,6.743,6.743,0,0,1-.086,1.206,15.721,15.721,0,0,1-7.236,1.6,15.812,15.812,0,0,1-7.241-1.6,6.382,6.382,0,0,1-.086-1.206c0-.031,0-.062,0-.1.029-.89.135-1.862,1.092-2.186a13.2,13.2,0,0,0,3.748-1.627.51.51,0,0,0,.135-.734.572.572,0,0,0-.772-.129,11.985,11.985,0,0,1-3.407,1.475l-.041.012c-1.781.582-1.835,2.389-1.859,3.157a.746.746,0,0,1,0,.1v.012a5.7,5.7,0,0,0,.209,1.768.507.507,0,0,0,.213.246,16.127,16.127,0,0,0,8.012,1.866,16.176,16.176,0,0,0,8.012-1.866.529.529,0,0,0,.213-.246A5.982,5.982,0,0,0,52.932,264.1Z" transform="translate(-36.073 -248.152)" fill="#fff"/>
    </g>
  </g>
</svg>
