<svg xmlns="http://www.w3.org/2000/svg" width="34.125" height="34.125" viewBox="0 0 34.125 34.125">
  <g id="axis" opacity="0.404">
    <path id="Path_2366" data-name="Path 2366" d="M286.3,14.34a.545.545,0,0,0,0-1.089A12.721,12.721,0,0,1,273.589.545a.545.545,0,0,0-1.089,0A13.811,13.811,0,0,0,286.3,14.34Z" transform="translate(-252.715)" fill="#fff"/>
    <path id="Path_2367" data-name="Path 2367" d="M.545,272.5a.545.545,0,0,0,0,1.089A12.721,12.721,0,0,1,13.251,286.3a.545.545,0,0,0,1.089,0A13.811,13.811,0,0,0,.545,272.5Z" transform="translate(0 -252.715)" fill="#fff"/>
    <path id="Path_2368" data-name="Path 2368" d="M18.152,23.113a.545.545,0,0,0,0-1.089h-.545V12.1h.545a.545.545,0,1,0,0-1.089h-.545V6.6h.545a.545.545,0,0,0,0-1.089h-.545V1.089h.545a.545.545,0,0,0,0-1.089H15.973a.545.545,0,1,0,0,1.089h.545V5.506h-.545a.545.545,0,1,0,0,1.089h.545v4.417h-.545a.545.545,0,0,0,0,1.089h.545v4.417H12.1v-.545a.545.545,0,0,0-1.089,0v.545H6.6v-.545a.545.545,0,0,0-1.089,0v.545H1.089v-.545a.545.545,0,0,0-1.089,0v2.178a.545.545,0,0,0,1.089,0v-.545H5.506v.545a.545.545,0,0,0,1.089,0v-.545h4.417v.545a.545.545,0,0,0,1.089,0v-.545h4.417v4.417h-.545a.545.545,0,1,0,0,1.089h.545V27.53h-.545a.545.545,0,0,0,0,1.089h.545v4.417h-.545a.545.545,0,0,0,0,1.089h2.178a.545.545,0,0,0,0-1.089h-.545V28.619h.545a.545.545,0,1,0,0-1.089h-.545V23.113h.545Z" transform="translate(0)" fill="#fff"/>
    <path id="Path_2369" data-name="Path 2369" d="M272.384,212.5a.545.545,0,0,0-.545.545v.545h-4.417v-.545a.545.545,0,0,0-1.089,0v.545h-4.417v-.545a.545.545,0,1,0-1.089,0v.545h-2.783a.545.545,0,0,0,0,1.089h2.783v.545a.545.545,0,1,0,1.089,0v-.545h4.417v.545a.545.545,0,0,0,1.089,0v-.545h4.417v.545a.545.545,0,1,0,1.089,0v-2.178A.545.545,0,0,0,272.384,212.5Z" transform="translate(-238.804 -197.071)" fill="#fff"/>
  </g>
</svg>
