<svg xmlns="http://www.w3.org/2000/svg" width="26.666" height="34.125" viewBox="0 0 26.666 34.125">
  <g id="bacteria" opacity="0.404">
    <path id="Path_2370" data-name="Path 2370" d="M77.493,8.713h-.93a7.772,7.772,0,0,0-1.892-4.576l.655-.655a.545.545,0,0,0-.77-.77l-.655.655a7.736,7.736,0,0,0-4.576-1.9V.545a.545.545,0,1,0-1.089,0v.926a7.736,7.736,0,0,0-4.576,1.9L63,2.711a.545.545,0,0,0-.77.77l.642.642L59.571,7.429l-.642-.642a.545.545,0,0,0-.77.77L58.8,8.2,55.5,11.5l-.642-.642a.545.545,0,0,0-.77.77l.655.655a7.773,7.773,0,0,0-1.892,4.576h-.93a.545.545,0,1,0,0,1.089h.93a7.773,7.773,0,0,0,1.892,4.576L52.8,24.468a3.812,3.812,0,1,0,5.391,5.391l.513-.513a2.723,2.723,0,1,1,3.851,3.85.545.545,0,0,0,.77.77,3.812,3.812,0,1,0-5.391-5.391l-.513.513a2.723,2.723,0,0,1-3.85-3.851L55.509,23.3a7.736,7.736,0,0,0,4.576,1.9v.927a.545.545,0,1,0,1.089,0v-.927a7.736,7.736,0,0,0,4.576-1.9l.655.655a.545.545,0,0,0,.77-.77l-.642-.642,3.305-3.306.642.642a.545.545,0,0,0,.77-.77l-.642-.642,3.305-3.306.642.642a.545.545,0,0,0,.77-.77l-.655-.655A7.773,7.773,0,0,0,76.563,9.8h.93a.545.545,0,1,0,0-1.089Zm-3.964,5.294-8.151,8.151a6.716,6.716,0,0,1-9.5-9.5l8.151-8.151a6.716,6.716,0,1,1,9.5,9.5Z" transform="translate(-51.372)" fill="#fff"/>
    <ellipse id="Ellipse_85" data-name="Ellipse 85" cx="0.545" cy="0.545" rx="0.545" ry="0.545" transform="translate(17.891 10.304)" fill="#fff"/>
    <ellipse id="Ellipse_86" data-name="Ellipse 86" cx="0.545" cy="0.545" rx="0.545" ry="0.545" transform="translate(17.891 7.224)" fill="#fff"/>
    <path id="Path_2371" data-name="Path 2371" d="M111.2,51.681a.545.545,0,0,0,.77.77,4.538,4.538,0,1,1,6.417,6.418l-8.151,8.151a4.538,4.538,0,0,1-6.417-6.417l6.611-6.611a.545.545,0,0,0-.77-.77l-6.611,6.611a5.627,5.627,0,0,0,7.958,7.958l8.151-8.151a5.627,5.627,0,0,0-7.958-7.958Z" transform="translate(-97.772 -46.402)" fill="#fff"/>
    <ellipse id="Ellipse_87" data-name="Ellipse 87" cx="0.545" cy="0.545" rx="0.545" ry="0.545" transform="translate(7.686 15.272)" fill="#fff"/>
    <path id="Path_2372" data-name="Path 2372" d="M195.729,146.538c-.114.114-.189.121-.432.129a1.553,1.553,0,0,0-1.17.447.545.545,0,0,0,.77.77c.114-.114.189-.121.432-.129a1.535,1.535,0,0,0,1.618-1.617c.007-.243.014-.318.129-.432s.189-.121.432-.129a1.534,1.534,0,0,0,1.617-1.617c.007-.243.014-.318.129-.432a.545.545,0,0,0-.77-.77,1.553,1.553,0,0,0-.447,1.17c-.007.243-.014.318-.129.432s-.189.121-.432.129a1.535,1.535,0,0,0-1.617,1.617C195.851,146.348,195.844,146.424,195.729,146.538Z" transform="translate(-183.614 -132.244)" fill="#fff"/>
  </g>
</svg>
