<svg xmlns="http://www.w3.org/2000/svg" width="321.331" height="343.583" viewBox="0 0 321.331 343.583">
  <g id="Illustration" transform="translate(-27 -170)">
    <circle id="Ellipse_1" data-name="Ellipse 1" cx="149.332" cy="149.332" r="149.332" transform="translate(38 170)" fill="#f3e7e7" opacity="0.8"/>
    <g id="ground" transform="translate(37.328 447.133)">
      <path id="Path_1" data-name="Path 1" d="M561.534,706.377c0,3.066-69.59,19.682-155.434,19.682s-155.435-16.616-155.435-19.682S320.255,708.4,406.1,708.4,561.534,703.311,561.534,706.377Z" transform="translate(-250.665 -700.826)" fill="#c8c7cb"/>
      <path id="Path_2" data-name="Path 2" d="M561.534,706.377c0,3.066-69.59,19.682-155.434,19.682s-155.435-16.616-155.435-19.682S320.255,708.4,406.1,708.4,561.534,703.311,561.534,706.377Z" transform="translate(-250.665 -700.826)" fill="#c8c7cb" opacity="0.1"/>
      <ellipse id="Ellipse_2" data-name="Ellipse 2" cx="155.435" cy="5.551" rx="155.435" ry="5.551" transform="translate(0)" fill="#c8c7cb"/>
    </g>
    <line id="Line_1" data-name="Line 1" y1="49.961" transform="translate(341.265 401.209)" fill="#3f3d56" stroke="#3f3d56" stroke-miterlimit="10" stroke-width="2"/>
    <circle id="Ellipse_3" data-name="Ellipse 3" cx="7.065" cy="7.065" r="7.065" transform="translate(334.2 394.144)" fill="#3f3d56"/>
    <path id="Path_3" data-name="Path 3" d="M928.193,633.953s-1.009-21.708-21.7-19.185" transform="translate(-586.927 -201.952)" fill="#3f3d56"/>
    <line id="Line_2" data-name="Line 2" y1="164.396" transform="translate(55.765 290.499)" fill="#3f3d56" stroke="#3f3d56" stroke-miterlimit="10" stroke-width="2"/>
    <circle id="Ellipse_4" data-name="Ellipse 4" cx="7.065" cy="7.065" r="7.065" transform="translate(48.7 283.355)" fill="#3f3d56"/>
    <circle id="Ellipse_5" data-name="Ellipse 5" cx="7.065" cy="7.065" r="7.065" transform="translate(27 403.924)" fill="#3f3d56"/>
    <path id="Path_4" data-name="Path 4" d="M264.783,388.823s-1.009-21.708-21.7-19.185" transform="translate(-209.017 -62.314)" fill="#3f3d56"/>
    <path id="Path_5" data-name="Path 5" d="M264.783,531.823s-1.009-21.708-21.7-19.185" transform="translate(-209.017 -143.774)" fill="#3f3d56"/>
    <path id="Path_6" data-name="Path 6" d="M264.783,652.756s4.542-39.945-21.7-41.963" transform="translate(-209.017 -199.804)" fill="none" stroke="#3f3d56" stroke-miterlimit="10" stroke-width="2"/>
    <circle id="Ellipse_6" data-name="Ellipse 6" cx="7.065" cy="7.065" r="7.065" transform="translate(70.403 403.924)" fill="#3f3d56"/>
    <path id="Path_7" data-name="Path 7" d="M293.116,652.756s-4.542-39.945,21.7-41.963" transform="translate(-237.348 -199.804)" fill="none" stroke="#3f3d56" stroke-miterlimit="10" stroke-width="2"/>
    <circle id="Ellipse_7" data-name="Ellipse 7" cx="7.065" cy="7.065" r="7.065" transform="translate(70.834 337.65)" fill="#3f3d56"/>
    <path id="Path_8" data-name="Path 8" d="M294.116,498.756s-4.542-39.945,21.7-41.963" transform="translate(-237.918 -112.078)" fill="none" stroke="#3f3d56" stroke-miterlimit="10" stroke-width="2"/>
    <line id="Line_3" data-name="Line 3" y1="99.922" transform="translate(286.923 350.239)" fill="#3f3d56" stroke="#3f3d56" stroke-miterlimit="10" stroke-width="2"/>
    <circle id="Ellipse_8" data-name="Ellipse 8" cx="7.065" cy="7.065" r="7.065" transform="translate(279.858 343.174)" fill="#3f3d56"/>
    <path id="Path_9" data-name="Path 9" d="M830.644,510.823s1.009-21.708,21.7-19.185" transform="translate(-543.72 -131.811)" fill="#3f3d56"/>
    <path id="Path_10" data-name="Path 10" d="M830.246,641.756s-4.542-39.945,21.7-41.963" transform="translate(-543.323 -193.538)" fill="none" stroke="#3f3d56" stroke-miterlimit="10" stroke-width="2"/>
    <circle id="Ellipse_9" data-name="Ellipse 9" cx="7.065" cy="7.065" r="7.065" transform="translate(301.558 399.19)" fill="#3f3d56"/>
    <circle id="Ellipse_10" data-name="Ellipse 10" cx="25.543" cy="25.543" r="25.543" transform="translate(228.932 211.06)" fill="#fb4e71"/>
    <circle id="Ellipse_11" data-name="Ellipse 11" cx="33.998" cy="33.998" r="33.998" transform="translate(199.03 370.086)" fill="#2f2e41"/>
    <rect id="Rectangle_1" data-name="Rectangle 1" width="10.328" height="18.505" transform="translate(248.52 449.271) rotate(180)" fill="#2f2e41"/>
    <rect id="Rectangle_2" data-name="Rectangle 2" width="10.328" height="18.505" transform="translate(227.863 449.271) rotate(180)" fill="#2f2e41"/>
    <ellipse id="Ellipse_12" data-name="Ellipse 12" cx="8.607" cy="3.228" rx="8.607" ry="3.228" transform="translate(211.481 452.717) rotate(-30)" fill="#fb176e"/>
    <ellipse id="Ellipse_13" data-name="Ellipse 13" cx="8.607" cy="3.228" rx="8.607" ry="3.228" transform="translate(231.707 452.717) rotate(-30)" fill="#fb176e"/>
    <ellipse id="Ellipse_14" data-name="Ellipse 14" cx="11.62" cy="11.62" rx="11.62" ry="11.62" transform="translate(220.547 383.857)" fill="#fff"/>
    <circle id="Ellipse_15" data-name="Ellipse 15" cx="3.873" cy="3.873" r="3.873" transform="translate(224.336 386.655)" fill="#3f3d56"/>
    <path id="Path_11" data-name="Path 11" d="M716.34,483.663c2.745-12.294-6.03-24.717-19.6-27.747s-26.8,4.48-29.541,16.774,6.248,16.828,19.818,19.858S713.594,495.957,716.34,483.663Z" transform="translate(-450.333 -111.196)" fill="#fb176e"/>
    <ellipse id="Ellipse_16" data-name="Ellipse 16" cx="5.336" cy="16.999" rx="5.336" ry="16.999" transform="translate(185.512 390.616) rotate(-66.829)" fill="#2f2e41"/>
    <ellipse id="Ellipse_17" data-name="Ellipse 17" cx="5.336" cy="16.999" rx="5.336" ry="16.999" transform="translate(249.204 413.425) rotate(-66.829)" fill="#2f2e41"/>
    <path id="Path_12" data-name="Path 12" d="M700.7,622.412a7.746,7.746,0,1,1-15.493,0c0-4.278,3.468-5.164,7.746-5.164S700.7,618.134,700.7,622.412Z" transform="translate(-460.875 -203.481)" fill="#fff"/>
    <line id="Line_4" data-name="Line 4" y1="49.961" transform="translate(192.506 343.972)" fill="none" stroke="#fb176e" stroke-miterlimit="10" stroke-width="2"/>
    <circle id="Ellipse_18" data-name="Ellipse 18" cx="7.065" cy="7.065" r="7.065" transform="translate(185.441 336.907)" fill="#fb176e"/>
    <path id="Path_13" data-name="Path 13" d="M582.524,500.953s-1.009-21.708-21.7-19.185" transform="translate(-390.018 -126.189)" fill="#fb176e"/>
    <path id="Path_14" data-name="Path 14" d="M421.01,452.937l2.739,6.455h2.426l-3.443-16.353c0-10.5-5.066-19.366-15.563-19.366h0a13.271,13.271,0,0,0-13.27,13.27v16.038a6.41,6.41,0,0,0,6.41,6.41h18.819Z" transform="translate(-294.929 -93.211)" fill="#2f2e41"/>
    <path id="Path_15" data-name="Path 15" d="M437.382,640.944s35.719-4.3,40.023,3.443,1.291,14.2-4.3,18.075-36.58,21.518-36.58,21.518l-2.582,4.3-5.595-.861-5.595-5.164,2.582-4.734s21.518-12.911,21.948-16.353c0,0-19.8,9.037-21.948,7.316s-26.251-9.9-22.378-14.632,13.771-11.619,13.771-11.619Z" transform="translate(-299.848 -216.3)" fill="#2f2e41"/>
    <path id="Path_16" data-name="Path 16" d="M437.382,640.944s35.719-4.3,40.023,3.443,1.291,14.2-4.3,18.075-36.58,21.518-36.58,21.518l-2.582,4.3-5.595-.861-5.595-5.164,2.582-4.734s21.518-12.911,21.948-16.353c0,0-19.8,9.037-21.948,7.316s-26.251-9.9-22.378-14.632,13.771-11.619,13.771-11.619Z" transform="translate(-299.848 -216.3)" opacity="0.1"/>
    <path id="Path_17" data-name="Path 17" d="M445.131,731.538s6.455-1.291,5.164,3.012-2.152,12.911,0,15.062,9.037,11.62,2.152,12.48-14.2-7.746-14.2-7.746-4.734-13.771-8.177-15.062-6.886-6.455-5.164-7.746,12.05-9.468,12.911-9.037.43,5.164.43,5.164S441.689,733.259,445.131,731.538Z" transform="translate(-312.331 -263.428)" fill="#fb176e"/>
    <path id="Path_18" data-name="Path 18" d="M469.454,496.4l15.923,11.189s12.05-12.48,12.05-19.8,6.455-21.087,9.468-15.493-3.443,18.936-3.443,18.936l-12.05,28.4s-6.886,1.291-10.759-1.721-14.632-9.037-14.632-9.037Z" transform="translate(-336.008 -120.166)" fill="#ffb9b9"/>
    <circle id="Ellipse_19" data-name="Ellipse 19" cx="12.05" cy="12.05" r="12.05" transform="translate(105.688 333.409)" fill="#ffb9b9"/>
    <path id="Path_19" data-name="Path 19" d="M418,475.743s-4.3,11.189-2.582,13.771,3.873,2.582,5.595,3.443c.861.43,9.9,3.873,9.9,6.455a10.27,10.27,0,0,1-1.291,4.734l-1.291,7.316-10.759,6.886-14.2-1.721L392.607,510.6s-1.721-15.923,3.012-18.505,10.328-8.607,9.9-10.759-.861-7.316-.861-7.316Z" transform="translate(-294.02 -121.892)" fill="#ffb9b9"/>
    <path id="Path_20" data-name="Path 20" d="M439.894,534.325s-6.455,6.455-6.455,7.316,4.3,4.734,1.291,9.9-3.013,18.075-3.013,18.075l-10.328,2.152-19.366-1.721-3.012-29.694s7.746,1.291,9.468,2.582,6.455-1.721,9.9-1.721,13.341-1.721,13.341-1.721l-.861-3.443,3.443-6.025Z" transform="translate(-297.842 -153.793)" fill="#fb176e"/>
    <path id="Path_21" data-name="Path 21" d="M497.511,646.522" transform="translate(-353.952 -220.157)" fill="none" stroke="#ffb9b9" stroke-miterlimit="10" stroke-width="1"/>
    <path id="Path_22" data-name="Path 22" d="M412.731,631.859s43.466-19.366,46.908-6.886,3.873,42.6,3.873,42.6,2.152,20.657,4.734,22.809,0,8.607,0,8.607l-6.455,2.152-6.025-2.582-2.582-6.886s-.861-15.493-4.3-23.239-3.443-25.821-3.012-26.682c0,0-16.784,20.657-33.137,19.366s-18.72-4.949-18.72-4.949S401.972,631.859,412.731,631.859Z" transform="translate(-294.993 -205.494)" fill="#2f2e41"/>
    <path id="Path_23" data-name="Path 23" d="M539.876,783.411s1.721-6.025,5.595-1.291,21.518,12.05,21.948,12.911,8.177,5.595-.861,12.05-21.087,0-21.087,0-10.328-3.443-12.911-3.012-7.746-2.152-8.177-4.3.586-21.068,2.875-19.141,4.871,7.091,4.871,7.091S540.737,789.866,539.876,783.411Z" transform="translate(-369.205 -296.366)" fill="#fb176e"/>
    <path id="Path_24" data-name="Path 24" d="M420.348,613.378s2.367-.215,1.937,5.379c0,0-14.847,4.519-17.429,8.392s-13.771,15.493-15.493,23.669c0,0-12.48-3.012-5.595-24.53l8.1-17.552S396.678,618.542,420.348,613.378Z" transform="translate(-287.978 -198.632)" fill="#fb176e"/>
    <path id="Path_25" data-name="Path 25" d="M418.128,571.022l-14.616-6.371s-6.886-14.2-6.886-21.087a106.141,106.141,0,0,0-.915-11.844,15.289,15.289,0,0,1,4.978-13.4,7.908,7.908,0,0,1,4.974-2.3s5.164,9.468,4.3,18.075,1.291,21.518,1.291,21.518L430.7,566.022" transform="translate(-295.888 -145.817)" fill="#ffb9b9"/>
    <path id="Path_26" data-name="Path 26" d="M419.512,595.725,404.9,589.354s-6.886-14.2-6.886-21.087c0-3.586,15.062-14.2,14.2-5.595a84.371,84.371,0,0,0,.43,17.645l19.446,10.408" transform="translate(-297.272 -170.52)" opacity="0.1"/>
    <path id="Path_27" data-name="Path 27" d="M407.516,558.767l-1.372,5.81-7.665,3.658h-6.455l-3.012-13.771s5.319-1.125,8.039.3,9.107,1.764,9.107,1.764Z" transform="translate(-292.145 -167.475)" fill="#fb176e"/>
    <path id="Path_28" data-name="Path 28" d="M410.034,424.248c-2.335-.592-7.871-.575-8.681-.575a14.861,14.861,0,0,0-14.861,14.861L380.9,459.392h10.89l2.021-7.746,2.869,7.746h5.482l.471-4.655,1.855,4.655h6.106c-4.573-10.347-7.006-19.779-1-25.6,4.057.553,7.479-.534,8.037-2.734C418.274,428.523,414.872,425.475,410.034,424.248Z" transform="translate(-287.524 -93.211)" fill="#2f2e41"/>
  </g>
</svg>
