<svg xmlns="http://www.w3.org/2000/svg" width="34.125" height="27.514" viewBox="0 0 34.125 27.514">
  <g id="book" opacity="0.404">
    <path id="Path_2373" data-name="Path 2373" d="M228.045,94.217a.544.544,0,0,0,.545-.545V91.495a.545.545,0,1,0-1.089,0v2.178A.545.545,0,0,0,228.045,94.217Z" transform="translate(-210.982 -87.652)" fill="#fff"/>
    <path id="Path_2374" data-name="Path 2374" d="M228.045,166.041a.545.545,0,0,0,.545-.545v-14a.545.545,0,0,0-1.089,0v14A.545.545,0,0,0,228.045,166.041Z" transform="translate(-210.982 -143.296)" fill="#fff"/>
    <path id="Path_2375" data-name="Path 2375" d="M33.581,75.527a.545.545,0,0,0-.545.545v22.8H19.149a.87.87,0,0,0-.7.356l-.467.545H16.146l-.467-.545a.87.87,0,0,0-.7-.356H1.089v-22.8a.545.545,0,0,0-1.089,0V99.417a.545.545,0,0,0,.545.545H14.872l.61.711a.545.545,0,0,0,.413.19H18.23a.544.544,0,0,0,.413-.19l.609-.711H33.581a.545.545,0,0,0,.545-.545V76.072a.545.545,0,0,0-.545-.545Z" transform="translate(0 -73.349)" fill="#fff"/>
    <path id="Path_2376" data-name="Path 2376" d="M30.545,69.962H42.8a1.957,1.957,0,0,1,1.633.876.544.544,0,0,0,.907,0,1.957,1.957,0,0,1,1.633-.876H59.224a.545.545,0,0,0,.545-.545V46.072a.545.545,0,0,0-.545-.545H46.97a3.04,3.04,0,0,0-2.086.826,3.041,3.041,0,0,0-2.086-.826H30.545a.545.545,0,0,0-.545.545V69.417A.545.545,0,0,0,30.545,69.962Zm.545-23.346H42.8a1.957,1.957,0,0,1,1.633.877.545.545,0,0,0,.907,0,1.956,1.956,0,0,1,1.633-.877H58.68V68.873H46.97a3.042,3.042,0,0,0-2.086.825,3.042,3.042,0,0,0-2.086-.825H31.089V46.616Z" transform="translate(-27.822 -45.527)" fill="#fff"/>
    <path id="Path_2377" data-name="Path 2377" d="M79.076,85.527H70.545a.545.545,0,0,0,0,1.089h8.531a.545.545,0,0,0,0-1.089Z" transform="translate(-64.918 -82.623)" fill="#fff"/>
    <path id="Path_2378" data-name="Path 2378" d="M79.076,115.527H70.545a.545.545,0,0,0,0,1.089h8.531a.545.545,0,1,0,0-1.089Z" transform="translate(-64.918 -110.445)" fill="#fff"/>
    <path id="Path_2379" data-name="Path 2379" d="M79.076,145.527H70.545a.545.545,0,1,0,0,1.089h8.531a.545.545,0,1,0,0-1.089Z" transform="translate(-64.918 -138.266)" fill="#fff"/>
    <path id="Path_2380" data-name="Path 2380" d="M79.076,175.527H70.545a.545.545,0,0,0,0,1.089h8.531a.545.545,0,0,0,0-1.089Z" transform="translate(-64.918 -166.088)" fill="#fff"/>
    <path id="Path_2381" data-name="Path 2381" d="M79.076,205.527H70.545a.545.545,0,1,0,0,1.089h8.531a.545.545,0,1,0,0-1.089Z" transform="translate(-64.918 -193.91)" fill="#fff"/>
    <path id="Path_2382" data-name="Path 2382" d="M70.545,236.616H74.81a.545.545,0,0,0,0-1.089H70.545a.545.545,0,0,0,0,1.089Z" transform="translate(-64.918 -221.732)" fill="#fff"/>
    <path id="Path_2383" data-name="Path 2383" d="M79.076,265.527H70.545a.545.545,0,0,0-.545.545v4.468a.545.545,0,0,0,.545.545h8.531a.545.545,0,0,0,.545-.545v-4.468A.545.545,0,0,0,79.076,265.527Zm-.545,4.468H71.089v-3.379h7.442Z" transform="translate(-64.918 -249.554)" fill="#fff"/>
    <path id="Path_2384" data-name="Path 2384" d="M258.045,208.151h8.531a.545.545,0,0,0,0-1.089h-8.531a.545.545,0,1,0,0,1.089Z" transform="translate(-238.804 -195.333)" fill="#fff"/>
    <path id="Path_2385" data-name="Path 2385" d="M258.045,238.151h8.531a.545.545,0,0,0,0-1.089h-8.531a.545.545,0,1,0,0,1.089Z" transform="translate(-238.804 -223.155)" fill="#fff"/>
    <path id="Path_2386" data-name="Path 2386" d="M258.045,268.151h8.531a.545.545,0,0,0,0-1.089h-8.531a.545.545,0,0,0,0,1.089Z" transform="translate(-238.804 -250.977)" fill="#fff"/>
    <path id="Path_2387" data-name="Path 2387" d="M258.045,298.151h8.531a.545.545,0,0,0,0-1.089h-8.531a.545.545,0,0,0,0,1.089Z" transform="translate(-238.804 -278.799)" fill="#fff"/>
    <path id="Path_2388" data-name="Path 2388" d="M258.045,328.151h4.266a.545.545,0,1,0,0-1.089h-4.266a.545.545,0,1,0,0,1.089Z" transform="translate(-238.804 -306.621)" fill="#fff"/>
    <path id="Path_2389" data-name="Path 2389" d="M258.045,92.172a.545.545,0,1,0,0,1.089,3.965,3.965,0,0,0,2-.518.547.547,0,0,0,.082-.047,7.292,7.292,0,0,0,2.182-2.3,7.294,7.294,0,0,0,2.181,2.3.54.54,0,0,0,.085.049,3.966,3.966,0,0,0,2,.517.545.545,0,1,0,0-1.089,2.97,2.97,0,0,1-1.225-.251V86.866a2.97,2.97,0,0,1,1.225-.251.545.545,0,1,0,0-1.089,3.966,3.966,0,0,0-2,.517.55.55,0,0,0-.083.048,7.293,7.293,0,0,0-2.181,2.3,7.292,7.292,0,0,0-2.182-2.3.542.542,0,0,0-.081-.047,3.965,3.965,0,0,0-2-.518.545.545,0,1,0,0,1.089,2.97,2.97,0,0,1,1.225.251v5.056a2.969,2.969,0,0,1-1.225.251Zm6.217-4.521v3.485a11.089,11.089,0,0,1-1.3-1.742A11.083,11.083,0,0,1,264.261,87.651Zm-3.9,0a11.091,11.091,0,0,1,1.3,1.742,11.091,11.091,0,0,1-1.3,1.742Z" transform="translate(-238.804 -82.622)" fill="#fff"/>
  </g>
</svg>
