<svg xmlns="http://www.w3.org/2000/svg" width="29.769" height="34.125" viewBox="0 0 29.769 34.125">
  <g id="calculator" opacity="0.404">
    <path id="Path_2390" data-name="Path 2390" d="M247.492,353.75h-4.447a.545.545,0,0,0-.545.545v4.447a.545.545,0,0,0,.545.545h4.447a.545.545,0,0,0,.545-.545v-4.447A.545.545,0,0,0,247.492,353.75Zm-.545,4.447h-3.358v-3.358h3.358Z" transform="translate(-227.071 -328.065)" fill="#fff"/>
    <path id="Path_2391" data-name="Path 2391" d="M156.242,353.75h-4.447a.545.545,0,0,0-.545.545v4.447a.545.545,0,0,0,.545.545h4.447a.545.545,0,0,0,.545-.545v-4.447A.545.545,0,0,0,156.242,353.75ZM155.7,358.2h-3.358v-3.358H155.7Z" transform="translate(-142.446 -328.065)" fill="#fff"/>
    <path id="Path_2392" data-name="Path 2392" d="M156.242,262.5h-4.447a.545.545,0,0,0-.545.545v4.447a.545.545,0,0,0,.545.545h4.447a.545.545,0,0,0,.545-.545v-4.447A.545.545,0,0,0,156.242,262.5Zm-.545,4.447h-3.358v-3.358H155.7Z" transform="translate(-142.446 -243.441)" fill="#fff"/>
    <path id="Path_2393" data-name="Path 2393" d="M64.992,353.75H60.545a.545.545,0,0,0-.545.545v4.447a.545.545,0,0,0,.545.545h4.447a.545.545,0,0,0,.545-.545v-4.447A.545.545,0,0,0,64.992,353.75Zm-.545,4.447H61.089v-3.358h3.358Z" transform="translate(-57.822 -328.065)" fill="#fff"/>
    <path id="Path_2394" data-name="Path 2394" d="M338.742,202.5h-4.447a.545.545,0,0,0-.545.545v2.178a.545.545,0,0,0,.545.545h4.447a.545.545,0,0,0,.545-.545v-2.178A.545.545,0,0,0,338.742,202.5Zm-.545,2.178h-3.358v-1.089H338.2Z" transform="translate(-311.696 -187.797)" fill="#fff"/>
    <path id="Path_2395" data-name="Path 2395" d="M247.492,262.5h-4.447a.545.545,0,0,0-.545.545v4.447a.545.545,0,0,0,.545.545h4.447a.545.545,0,0,0,.545-.545v-4.447A.545.545,0,0,0,247.492,262.5Zm-.545,4.447h-3.358v-3.358h3.358Z" transform="translate(-227.071 -243.441)" fill="#fff"/>
    <path id="Path_2396" data-name="Path 2396" d="M64.992,262.5H60.545a.545.545,0,0,0-.545.545v4.447a.545.545,0,0,0,.545.545h4.447a.545.545,0,0,0,.545-.545v-4.447A.545.545,0,0,0,64.992,262.5Zm-.545,4.447H61.089v-3.358h3.358Z" transform="translate(-57.822 -243.441)" fill="#fff"/>
    <path id="Path_2397" data-name="Path 2397" d="M247.492,202.5h-4.447a.545.545,0,0,0-.545.545v2.178a.545.545,0,0,0,.545.545h4.447a.545.545,0,0,0,.545-.545v-2.178A.545.545,0,0,0,247.492,202.5Zm-.545,2.178h-3.358v-1.089h3.358Z" transform="translate(-227.071 -187.797)" fill="#fff"/>
    <path id="Path_2398" data-name="Path 2398" d="M57.046,0H32.723A2.726,2.726,0,0,0,30,2.723V31.4a2.726,2.726,0,0,0,2.723,2.723H57.046A2.726,2.726,0,0,0,59.769,31.4V2.723A2.726,2.726,0,0,0,57.046,0ZM58.68,31.4a1.635,1.635,0,0,1-1.634,1.634H32.723A1.635,1.635,0,0,1,31.089,31.4V2.723a1.636,1.636,0,0,1,1.634-1.634H57.046A1.635,1.635,0,0,1,58.68,2.723Z" transform="translate(-30)" fill="#fff"/>
    <path id="Path_2399" data-name="Path 2399" d="M338.742,262.5h-4.447a.545.545,0,0,0-.545.545v11.073a.545.545,0,0,0,.545.545h4.447a.545.545,0,0,0,.545-.545V267.4a.545.545,0,1,0-1.089,0v6.172h-3.358v-9.983H338.2v1.634a.545.545,0,0,0,1.089,0v-2.178A.545.545,0,0,0,338.742,262.5Z" transform="translate(-311.696 -243.441)" fill="#fff"/>
    <path id="Path_2400" data-name="Path 2400" d="M84.868,40H60.545a.545.545,0,0,0-.545.545v8.894a.545.545,0,0,0,.545.545h4.447a.545.545,0,0,0,0-1.089h-3.9V41.089H84.323v7.805H67.17a.545.545,0,0,0,0,1.089h17.7a.545.545,0,0,0,.545-.545V40.545A.545.545,0,0,0,84.868,40Z" transform="translate(-57.822 -37.096)" fill="#fff"/>
    <path id="Path_2401" data-name="Path 2401" d="M335.545,71.089h2.178a.545.545,0,0,0,0-1.089h-2.178a.545.545,0,1,0,0,1.089Z" transform="translate(-312.855 -64.918)" fill="#fff"/>
    <path id="Path_2402" data-name="Path 2402" d="M335.545,131.089h2.178a.545.545,0,0,0,0-1.089h-2.178a.545.545,0,1,0,0,1.089Z" transform="translate(-312.855 -120.561)" fill="#fff"/>
    <path id="Path_2403" data-name="Path 2403" d="M335,92a.545.545,0,1,0,1.089,0V90.545a.545.545,0,1,0-1.089,0Z" transform="translate(-312.855 -83.465)" fill="#fff"/>
  </g>
</svg>
