<svg xmlns="http://www.w3.org/2000/svg" width="34.125" height="34.125" viewBox="0 0 34.125 34.125">
  <g id="cell" opacity="0.404">
    <path id="Path_2404" data-name="Path 2404" d="M29.128,5A17.061,17.061,0,0,0,5.82,4.229a.545.545,0,0,0,.718.819,15.975,15.975,0,1,1-1.49,1.49.545.545,0,1,0-.819-.718A17.062,17.062,0,1,0,29.128,5Z" transform="translate(0 0)" fill="#fff"/>
    <path id="Path_2405" data-name="Path 2405" d="M147.395,171.751a.544.544,0,0,0-.77,0,6.2,6.2,0,0,1-.819.688l-.548-.95a5.081,5.081,0,1,0-7.463-6.524l-1.015-.417a6.186,6.186,0,0,1,1.117-1.524.545.545,0,0,0-.77-.77A7.213,7.213,0,0,0,135,167.387a.545.545,0,0,0,1.089,0,6.189,6.189,0,0,1,.276-1.832l1.015.417a5.079,5.079,0,0,0,6.935,6.063l.548.95a6.116,6.116,0,0,1-1,.366.545.545,0,1,0,.281,1.052,7.224,7.224,0,0,0,1.747-.724l0,0,.008-.005a7.283,7.283,0,0,0,1.5-1.15A.544.544,0,0,0,147.395,171.751Zm-9.127-4.364a3.993,3.993,0,1,1,3.993,3.993A4,4,0,0,1,138.267,167.387Z" transform="translate(-125.198 -150.325)" fill="#fff"/>
    <path id="Path_2406" data-name="Path 2406" d="M232.22,333.677a8.345,8.345,0,0,1-4.175,1.117.545.545,0,1,0,0,1.089,9.435,9.435,0,0,0,4.721-1.264.545.545,0,0,0-.545-.943Z" transform="translate(-210.982 -309.382)" fill="#fff"/>
    <path id="Path_2407" data-name="Path 2407" d="M109.718,121.467A9.474,9.474,0,0,0,105,129.642a.545.545,0,1,0,1.089,0,8.382,8.382,0,0,1,4.175-7.233.545.545,0,1,0-.545-.943Z" transform="translate(-97.376 -112.579)" fill="#fff"/>
    <path id="Path_2408" data-name="Path 2408" d="M83.186,119.826a11.621,11.621,0,0,0-3.009,5.207.545.545,0,1,0,1.052.281,10.53,10.53,0,0,1,2.727-4.718.545.545,0,0,0-.77-.77Z" transform="translate(-74.338 -110.978)" fill="#fff"/>
    <path id="Path_2409" data-name="Path 2409" d="M55.41,54.638a.545.545,0,0,0,.768-.058,14.885,14.885,0,1,0-1.6,1.6.545.545,0,0,0-.71-.826,13.8,13.8,0,1,1,1.482-1.482A.545.545,0,0,0,55.41,54.638Z" transform="translate(-27.822 -27.822)" fill="#fff"/>
    <ellipse id="Ellipse_88" data-name="Ellipse 88" cx="0.545" cy="0.545" rx="0.545" ry="0.545" transform="translate(14.303 27.445)" fill="#fff"/>
    <ellipse id="Ellipse_89" data-name="Ellipse 89" cx="0.545" cy="0.545" rx="0.545" ry="0.545" transform="translate(13.069 5.99)" fill="#fff"/>
    <path id="Path_2410" data-name="Path 2410" d="M209.489,82.871a2,2,0,1,0-.518-.068A2,2,0,0,0,209.489,82.871Zm-.878-2.232a.909.909,0,1,1,.642,1.112A.908.908,0,0,1,208.611,80.639Z" transform="translate(-192.426 -73.15)" fill="#fff"/>
    <path id="Path_2411" data-name="Path 2411" d="M105.455,290.213a.533.533,0,0,0,.052.044l.006,0c.138.114.279.225.423.332a1.98,1.98,0,0,0,1.191.4,2,2,0,0,0,1.194-3.6,7.487,7.487,0,0,1-1.535-1.535,2.007,2.007,0,0,0-1.6-.8,2,2,0,0,0-1.6,3.189,11.477,11.477,0,0,0,1.873,1.973Zm-.813-3.893a.907.907,0,0,1,1.27.186l-.132.1a.545.545,0,0,0,.65.874l.189-.14a8.58,8.58,0,0,0,1.051.927.908.908,0,0,1-.543,1.636.9.9,0,0,1-.541-.18l.117-.157a.545.545,0,0,0-.874-.65l-.083.111a10.394,10.394,0,0,1-1.291-1.433A.909.909,0,0,1,104.642,286.32Z" transform="translate(-95.696 -264.354)" fill="#fff"/>
    <path id="Path_2412" data-name="Path 2412" d="M328.018,228.984a2,2,0,0,0,2.624-1.043c.071-.165.137-.331.2-.5l0-.006a.562.562,0,0,0,.023-.064,11.479,11.479,0,0,0,.635-2.645,1.982,1.982,0,0,0-.253-1.229,2,2,0,0,0-3.713.766,7.492,7.492,0,0,1-.562,2.1,2,2,0,0,0,1.043,2.624Zm1.5-5.4a.917.917,0,0,1,.107.006.908.908,0,0,1,.8,1.007,10.4,10.4,0,0,1-.4,1.886l-.127-.055a.545.545,0,0,0-.431,1l.18.078a.908.908,0,1,1-1.667-.719,8.583,8.583,0,0,0,.447-1.328l.233.027a.56.56,0,0,0,.064,0,.545.545,0,0,0,.063-1.085l-.163-.019A.906.906,0,0,1,329.518,223.587Z" transform="translate(-303.082 -206.343)" fill="#fff"/>
    <path id="Path_2413" data-name="Path 2413" d="M289,109.113a2,2,0,0,0,1.6-3.189,11.477,11.477,0,0,0-1.873-1.973.554.554,0,0,0-.052-.044l-.008-.005c-.138-.113-.278-.224-.421-.331a1.981,1.981,0,0,0-1.191-.4,2,2,0,0,0-1.194,3.6,7.489,7.489,0,0,1,1.535,1.535A2.006,2.006,0,0,0,289,109.113Zm-2.487-3.213a.908.908,0,0,1,.543-1.636.9.9,0,0,1,.541.18l-.117.157a.545.545,0,0,0,.874.65l.083-.111a10.391,10.391,0,0,1,1.291,1.433.908.908,0,1,1-1.456,1.084l.132-.1a.545.545,0,1,0-.65-.874l-.189.14a8.57,8.57,0,0,0-1.051-.927Z" transform="translate(-264.365 -95.685)" fill="#fff"/>
  </g>
</svg>
