<svg xmlns="http://www.w3.org/2000/svg" width="29.12" height="34.125" viewBox="0 0 29.12 34.125">
  <g id="clipboard" opacity="0.404">
    <path id="Path_2414" data-name="Path 2414" d="M55.919,63.08H54.83a.545.545,0,0,0,0,1.089h1.09A1.132,1.132,0,0,1,57.051,65.3V90.4a1.132,1.132,0,0,1-1.131,1.131H36.685A1.132,1.132,0,0,1,35.554,90.4V65.3a1.132,1.132,0,0,1,1.131-1.131h1.09a.545.545,0,1,0,0-1.089h-1.09a2.223,2.223,0,0,0-2.22,2.22V90.4a2.223,2.223,0,0,0,2.22,2.22H55.919a2.223,2.223,0,0,0,2.22-2.22V65.3A2.223,2.223,0,0,0,55.919,63.08Z" transform="translate(-34.465 -58.5)" fill="#fff"/>
    <path id="Path_2415" data-name="Path 2415" d="M389.164,104.835V86.705a.539.539,0,0,0-.006-.074l0-.016a.541.541,0,0,0-.017-.075l-1.27-4.088a.545.545,0,0,0-1.04,0l-1.27,4.088a.551.551,0,0,0-.017.075l0,.016a.547.547,0,0,0-.006.074V106.56a1.5,1.5,0,0,0,1.5,1.5h.635a1.5,1.5,0,0,0,1.5-1.5S389.164,104.835,389.164,104.835ZM387.349,84.45l.531,1.711h-1.063Zm-.726,2.8h1.452v17.041h-1.452Zm1.452,19.31a.409.409,0,0,1-.408.408h-.635a.409.409,0,0,1-.408-.408v-1.18h1.452Z" transform="translate(-360.044 -76.11)" fill="#fff"/>
    <path id="Path_2416" data-name="Path 2416" d="M124.344,346.913H113.1a.545.545,0,0,0,0,1.089h11.246a.545.545,0,1,0,0-1.089Z" transform="translate(-106.883 -321.725)" fill="#fff"/>
    <path id="Path_2417" data-name="Path 2417" d="M118.721,376.913H113.1a.545.545,0,0,0,0,1.089h5.623a.545.545,0,0,0,0-1.089Z" transform="translate(-106.883 -349.547)" fill="#fff"/>
    <path id="Path_2418" data-name="Path 2418" d="M64.465,7.3V31.4a.545.545,0,0,0,.545.545H83.239a.545.545,0,0,0,.545-.545V7.3a.545.545,0,0,0-.545-.545H81.018V5.125A2.223,2.223,0,0,0,78.8,2.9H77.53a3.449,3.449,0,0,0-6.812,0H69.451a2.223,2.223,0,0,0-2.22,2.22V6.758H65.01A.544.544,0,0,0,64.465,7.3ZM68.32,5.125a1.132,1.132,0,0,1,1.131-1.131H71.22a.545.545,0,0,0,.545-.545,2.36,2.36,0,0,1,4.72,0,.545.545,0,0,0,.545.545H78.8a1.132,1.132,0,0,1,1.131,1.131V8.936H68.32ZM65.554,7.847H67.23V9.481a.545.545,0,0,0,.545.545h12.7a.545.545,0,0,0,.545-.545V7.847h1.676V30.858H65.554Z" transform="translate(-62.287 0)" fill="#fff"/>
    <path id="Path_2419" data-name="Path 2419" d="M190.545,35a.545.545,0,0,0-.545.545v.726a.545.545,0,1,0,1.089,0v-.726A.545.545,0,0,0,190.545,35Z" transform="translate(-178.707 -32.459)" fill="#fff"/>
    <path id="Path_2420" data-name="Path 2420" d="M258.718,171.167h-.726a.545.545,0,0,0,0,1.089h.182v6.589h-.182a.545.545,0,0,0,0,1.089h.726a.545.545,0,0,0,.545-.545v-7.678A.545.545,0,0,0,258.718,171.167Z" transform="translate(-241.257 -158.739)" fill="#fff"/>
    <path id="Path_2421" data-name="Path 2421" d="M113.1,308.728h8.342a.545.545,0,0,0,.545-.545v-.726a.545.545,0,1,0-1.089,0v.182h-7.253v-.182a.545.545,0,1,0-1.089,0v.726A.545.545,0,0,0,113.1,308.728Z" transform="translate(-106.883 -284.629)" fill="#fff"/>
    <path id="Path_2422" data-name="Path 2422" d="M113.1,179.934h8.342a.545.545,0,0,0,.545-.545v-7.678a.545.545,0,0,0-.545-.545H113.1a.545.545,0,0,0-.545.545v1.452a.545.545,0,1,0,1.089,0v-.908H120.9v6.589h-7.253v-3.5a.545.545,0,0,0-1.089,0v4.048A.545.545,0,0,0,113.1,179.934Z" transform="translate(-106.883 -158.739)" fill="#fff"/>
  </g>
</svg>
