<svg xmlns="http://www.w3.org/2000/svg" width="21.877" height="34.125" viewBox="0 0 21.877 34.125">
  <path id="compass" d="M106.076,28.813l-.2-.583a2.176,2.176,0,0,0-.926-2.716L101.7,15.975h2.325v.182a.545.545,0,0,0,1.089,0V14.7a.545.545,0,0,0-1.089,0v.182h-2.7L98.55,6.737a.547.547,0,0,0-.049-.1,3.266,3.266,0,0,0-2.69-3.682V.545a.545.545,0,1,0-1.089,0V2.95a3.267,3.267,0,0,0-2.671,3.8l-2.773,8.135H86.509V14.7a.545.545,0,0,0-1.089,0v1.452a.545.545,0,0,0,1.089,0v-.182h2.4l-1.722,5.051a.545.545,0,1,0,1.031.351L92.706,8.2a3.262,3.262,0,0,0,.826.739l-7.514,22.04a1.593,1.593,0,0,1-.446-.575,1.526,1.526,0,0,1-.023-1.213l.011-.029,1.952-5.726a.545.545,0,0,0-1.031-.351l-.819,2.4a2.175,2.175,0,0,0-.952,2.791l-.178.521a2.605,2.605,0,0,0,.047,2.055,2.7,2.7,0,0,0,1.073,1.2L85.192,33.4a.545.545,0,1,0,1.031.351l1.522-4.463a2.176,2.176,0,0,0,.932-2.735l3.608-10.584h2.436v.908a.545.545,0,1,0,1.089,0v-.908h2.436l3.608,10.583a2.176,2.176,0,0,0,.932,2.735l1.522,4.464a.545.545,0,1,0,1.031-.351l-.46-1.35a2.75,2.75,0,0,0,1.2-3.241Zm-3.3-1.413a1.089,1.089,0,1,1,1.089,1.089A1.09,1.09,0,0,1,102.775,27.4Zm.929-2.172a2.164,2.164,0,0,0-1.031.35L97,8.941a3.262,3.262,0,0,0,.877-.8ZM95.811,8.894a.544.544,0,1,1-.011-.11A.545.545,0,0,1,95.811,8.894Zm-.545-4.9a2.178,2.178,0,0,1,1.306,3.921,1.632,1.632,0,0,0-2.612,0,2.178,2.178,0,0,1,1.306-3.921Zm.545,10.892v-.908a.545.545,0,1,0-1.089,0v.908H92.657l1.6-4.705a1.628,1.628,0,0,0,2.011,0l1.6,4.705H95.811Zm8.7,16.1-.482-1.414a2.164,2.164,0,0,0,1.029-.353A1.658,1.658,0,0,1,104.515,30.985Z" transform="translate(-84.345 0)" fill="#fff" opacity="0.404"/>
</svg>
