<svg xmlns="http://www.w3.org/2000/svg" width="24.677" height="34.125" viewBox="0 0 24.677 34.125">
  <g id="dna-structure" opacity="0.404">
    <path id="Path_2423" data-name="Path 2423" d="M89.738,33.54a16.982,16.982,0,0,0-3.689-10.77,41.316,41.316,0,0,0-7.651-7C73.22,11.774,68.329,8,68.329.545A.545.545,0,0,0,67.785,0H65.607a.545.545,0,0,0-.545.545,16.989,16.989,0,0,0,3.689,10.81,34.293,34.293,0,0,0,5.987,5.707,34.529,34.529,0,0,0-5.987,5.708,16.989,16.989,0,0,0-3.689,10.81.545.545,0,0,0,.545.545h2.178a.545.545,0,0,0,.545-.545,16.1,16.1,0,0,1,.081-1.634h3.872a.545.545,0,0,0,0-1.089h-3.72a13.1,13.1,0,0,1,1.02-3.232H83.069a.545.545,0,0,0,0-1.089H70.151A17.369,17.369,0,0,1,72.62,23.3h6.647a.545.545,0,0,0,0-1.089H73.719c1.114-1.045,2.356-2.055,3.681-3.087,4.791,3.726,9.07,7.478,9.07,14.452a.545.545,0,0,0,.545.545h2.178a.545.545,0,0,0,.546-.545Q89.739,33.56,89.738,33.54ZM72.008,22.351a.545.545,0,0,0-.065.068,20.481,20.481,0,0,0-1.674,1.951,15.684,15.684,0,0,0-1.494,2.417.543.543,0,0,0-.053.107,14.486,14.486,0,0,0-1.329,4.4.55.55,0,0,0-.009.068,16.45,16.45,0,0,0-.136,1.675H66.159a15.876,15.876,0,0,1,3.452-9.6,34.362,34.362,0,0,1,6.011-5.686l.78.6.109.084a44.044,44.044,0,0,0-4.5,3.911ZM87.551,33.036a14.855,14.855,0,0,0-3.265-8.986,39.406,39.406,0,0,0-7.219-6.557,40.512,40.512,0,0,1-7.456-6.807,15.876,15.876,0,0,1-3.452-9.6h1.09a14.855,14.855,0,0,0,3.265,8.986,39.4,39.4,0,0,0,7.219,6.557,40.505,40.505,0,0,1,7.456,6.807,15.876,15.876,0,0,1,3.452,9.6Z" transform="translate(-65.062)" fill="#fff"/>
    <path id="Path_2424" data-name="Path 2424" d="M149.956,89.515a.545.545,0,1,0,0,1.089h2.178a.545.545,0,1,0,0-1.089Z" transform="translate(-143.287 -83.016)" fill="#fff"/>
    <path id="Path_2425" data-name="Path 2425" d="M127.945,3.268h16.11A12.991,12.991,0,0,1,143.048,6.5H133.9a.545.545,0,0,0,0,1.089h8.583a17.226,17.226,0,0,1-2.472,3.232h-6.665a.545.545,0,1,0,0,1.089h5.564c-.7.656-1.461,1.306-2.275,1.964a.545.545,0,1,0,.685.847,22.837,22.837,0,0,0,6.512-7.372.544.544,0,0,0,.065-.134,14.522,14.522,0,0,0,1.32-4.374.542.542,0,0,0,.011-.085,16.41,16.41,0,0,0,.136-1.666h1.09a15.876,15.876,0,0,1-3.452,9.6,29.211,29.211,0,0,1-4.605,4.559.545.545,0,0,0,.692.841,30.248,30.248,0,0,0,4.773-4.732A16.988,16.988,0,0,0,147.55.546.545.545,0,0,0,147.005,0h-2.178a.545.545,0,0,0-.545.545q0,.848-.078,1.634H127.945a.545.545,0,1,0,0,1.089Z" transform="translate(-122.874 -0.001)" fill="#fff"/>
    <path id="Path_2426" data-name="Path 2426" d="M197.769,425H187.564a.545.545,0,0,0,0,1.089h10.206a.545.545,0,0,0,0-1.089Z" transform="translate(-178.164 -394.142)" fill="#fff"/>
  </g>
</svg>
