<svg xmlns="http://www.w3.org/2000/svg" width="27.953" height="34.125" viewBox="0 0 27.953 34.125">
  <g id="earth-globe" opacity="0.404">
    <path id="Path_2427" data-name="Path 2427" d="M66.1,33.036h-.236a2.727,2.727,0,0,0-2.668-2.178H58.475V29.715a15.36,15.36,0,0,0,5.36-1.164.545.545,0,0,0,.295-.712l-.278-.671a.545.545,0,1,0-1.006.417l.065.158a14.254,14.254,0,0,1-4.436.883v-.172a.545.545,0,0,0-1.089,0v.17A14.339,14.339,0,0,1,51.944,1.265l.066.158a.545.545,0,0,0,1.006-.417L52.738.336a.544.544,0,0,0-.711-.295,15.429,15.429,0,0,0,5.36,29.673v1.143H52.667A2.727,2.727,0,0,0,50,33.036h-.236a.545.545,0,1,0,0,1.089H66.1a.545.545,0,0,0,0-1.089ZM52.667,31.947H63.195a1.636,1.636,0,0,1,1.54,1.089H51.127A1.636,1.636,0,0,1,52.667,31.947Z" transform="translate(-42.502 0)" fill="#fff"/>
    <path id="Path_2428" data-name="Path 2428" d="M106.219,42.318a12.434,12.434,0,1,0-.067.138.545.545,0,0,0,.064-.127Zm-.814-.833a12.511,12.511,0,0,0-2.777-.5,18.773,18.773,0,0,0-.273-2.044.545.545,0,1,0-1.07.2,17.635,17.635,0,0,1,.248,1.819,12.516,12.516,0,0,0-4,.753l-1.88-4.539,4.522-1.873c.228.588.432,1.184.607,1.777a.545.545,0,0,0,1.044-.309c-.186-.629-.4-1.261-.645-1.885l4.522-1.873A11.405,11.405,0,0,1,105.4,41.486ZM90.125,39.467l4.522-1.873,1.88,4.539a12.517,12.517,0,0,0-3.361,2.3,20.5,20.5,0,0,1-3.041-4.962ZM99.759,34.3l-4.522,1.873-1.88-4.539a12.516,12.516,0,0,0,3.361-2.3A20.5,20.5,0,0,1,99.759,34.3ZM88.33,30.716c.142-2,.759-3.443,1.755-4.135l1.848,4.461a11.425,11.425,0,0,1-3.633.672Q88.3,31.2,88.33,30.716Zm4.609-.091-1.848-4.461c1.194-.215,2.648.367,4.165,1.682q.368.319.727.684A11.429,11.429,0,0,1,92.939,30.625Zm-.589,1.424,1.88,4.539-4.522,1.873A20.5,20.5,0,0,1,88.35,32.8,12.519,12.519,0,0,0,92.35,32.049ZM99.8,47.182l-1.847-4.458a11.425,11.425,0,0,1,3.631-.672C101.6,44.482,100.966,46.36,99.8,47.182ZM96.945,43.14,98.792,47.6c-1.193.215-2.648-.367-4.165-1.682q-.368-.319-.727-.684A11.424,11.424,0,0,1,96.945,43.14Zm8.341-11.132-4.52,1.872a21.549,21.549,0,0,0-3.29-5.335,12.508,12.508,0,0,0,1.616-2.327,11.4,11.4,0,0,1,6.194,5.79ZM98.04,25.871a11.418,11.418,0,0,1-1.307,1.869q-.376-.38-.762-.716a9.374,9.374,0,0,0-2.3-1.509,11.372,11.372,0,0,1,1.263-.071A11.5,11.5,0,0,1,98.04,25.871ZM87.8,27.945a9.369,9.369,0,0,0-.558,2.694q-.036.51-.033,1.045a11.421,11.421,0,0,1-2.243-.4A11.319,11.319,0,0,1,87.8,27.945Zm-3.424,4.562c.032-.077.064-.152.1-.228a12.51,12.51,0,0,0,2.782.5,21.551,21.551,0,0,0,1.446,6.1l-4.522,1.873A11.352,11.352,0,0,1,84.377,32.507Zm.222,9.25,4.52-1.872a21.548,21.548,0,0,0,3.29,5.335,12.506,12.506,0,0,0-1.616,2.327,11.4,11.4,0,0,1-6.194-5.79Zm7.245,6.138a11.422,11.422,0,0,1,1.307-1.869q.376.38.762.716a9.362,9.362,0,0,0,2.3,1.509,11.378,11.378,0,0,1-1.264.071,11.493,11.493,0,0,1-3.1-.426Zm10.238-2.079a7.75,7.75,0,0,0,.287-.919,11.477,11.477,0,0,0,.3-2.816,11.416,11.416,0,0,1,2.238.395A11.412,11.412,0,0,1,102.082,45.816Z" transform="translate(-79.513 -22.587)" fill="#fff"/>
  </g>
</svg>
