<svg xmlns="http://www.w3.org/2000/svg" width="20.204" height="19.279" viewBox="0 0 20.204 19.279">
  <g id="house" transform="translate(0 -11.141)">
    <path id="Path_2158" data-name="Path 2158" d="M20.018,19.839l-9.508-8.5a.267.267,0,0,0-.054-.042.562.562,0,0,0-.76-.012l-9.508,8.5a.562.562,0,0,0,.748.839l1.712-1.533v9.915A1.414,1.414,0,0,0,4.061,30.42h3a1.327,1.327,0,0,0,1.326-1.326V24.053a.2.2,0,0,1,.2-.2H11.62a.2.2,0,0,1,.2.2v5.041a1.327,1.327,0,0,0,1.326,1.326h3a1.606,1.606,0,0,0,1.413-1.77v-9.5l1.712,1.533a.565.565,0,0,0,.794-.046A.572.572,0,0,0,20.018,19.839Zm-3.582,2.772v6.03c0,.4-.2.648-.291.648h-3a.2.2,0,0,1-.2-.2V24.053a1.327,1.327,0,0,0-1.326-1.326H8.586a1.327,1.327,0,0,0-1.326,1.326v5.041a.2.2,0,0,1-.2.2h-3a.292.292,0,0,1-.291-.291V18.086l6.308-5.635,6.362,5.689v4.471Z" transform="translate(0 0)" fill="#fff"/>
  </g>
</svg>
