<svg xmlns="http://www.w3.org/2000/svg" width="34.125" height="34.125" viewBox="0 0 34.125 34.125">
  <g id="magnifying-glass" opacity="0.404">
    <path id="Path_2430" data-name="Path 2430" d="M23.6,0a10.522,10.522,0,0,0-7.816,17.574l-.72.72-.594-.6a.518.518,0,0,0-.086-.087l-.467-.472a.545.545,0,0,0-.774.766l.13.131L.16,31.142a.544.544,0,0,0,0,.77l2.054,2.054a.545.545,0,0,0,.77,0l13.1-13.1.126.127a.545.545,0,0,0,.774-.766l-1.151-1.163.724-.724A10.526,10.526,0,1,0,23.6,0ZM2.6,32.81,1.315,31.527,14.036,18.806l1.277,1.29Zm21-12.844a9.439,9.439,0,1,1,9.439-9.439A9.45,9.45,0,0,1,23.6,19.967Z" transform="translate(0)" fill="#fff"/>
    <path id="Path_2431" data-name="Path 2431" d="M218.35,30a8.35,8.35,0,1,0,5.023,15.02.545.545,0,1,0-.656-.87,7.261,7.261,0,1,1,1.433-1.433.545.545,0,0,0,.87.656A8.35,8.35,0,0,0,218.35,30Z" transform="translate(-194.753 -27.822)" fill="#fff"/>
    <path id="Path_2432" data-name="Path 2432" d="M284.728,79.8a.545.545,0,1,0,0,1.089,5.445,5.445,0,1,0-2.9-10.055.545.545,0,0,0,.581.922,4.356,4.356,0,1,1,2.318,8.044Z" transform="translate(-261.13 -64.918)" fill="#fff"/>
    <path id="Path_2433" data-name="Path 2433" d="M250.836,101.83a5.43,5.43,0,0,0-.836,2.9.545.545,0,1,0,1.089,0,4.343,4.343,0,0,1,.669-2.318.545.545,0,1,0-.921-.581Z" transform="translate(-231.848 -94.201)" fill="#fff"/>
  </g>
</svg>
