<svg xmlns="http://www.w3.org/2000/svg" width="34.125" height="34.125" viewBox="0 0 34.125 34.125">
  <g id="medicines" opacity="0.404">
    <path id="Path_2434" data-name="Path 2434" d="M19.756,84.257a.545.545,0,1,0,0-1.089H19.71V80.831a1.445,1.445,0,0,0-1.444-1.444H2.034A1.445,1.445,0,0,0,.59,80.831v2.338H.545a.545.545,0,1,0,0,1.089h1.34v1.3l-.668.383A2.745,2.745,0,0,0,0,88.152v17.254a2.345,2.345,0,0,0,2.343,2.343H17.957a2.345,2.345,0,0,0,2.343-2.343V88.152a2.745,2.745,0,0,0-1.216-2.211l-.668-.383v-1.3h1.34Zm-.545,21.148a1.255,1.255,0,0,1-1.254,1.254H2.343a1.255,1.255,0,0,1-1.254-1.254v-1.254H19.211Zm0-2.343H1.089V92.522H19.211Zm-.668-16.177a1.661,1.661,0,0,1,.668,1.266v3.281H1.089V88.152a1.661,1.661,0,0,1,.668-1.266l.942-.539a.545.545,0,0,0,.274-.473V84.257H17.327v1.617a.544.544,0,0,0,.274.473ZM1.679,83.168V80.831a.359.359,0,0,1,.355-.355H4.2v1.058a.545.545,0,0,0,1.089,0V80.476H7.8v1.058a.545.545,0,0,0,1.089,0V80.476h2.517v1.058a.545.545,0,0,0,1.089,0V80.476h2.517v1.058a.545.545,0,0,0,1.089,0V80.476h2.163a.359.359,0,0,1,.355.355v2.338Z" transform="translate(0 -73.623)" fill="#fff"/>
    <path id="Path_2435" data-name="Path 2435" d="M52.757,294.013h6.515a3.3,3.3,0,0,0,0-6.6H52.757a3.3,3.3,0,0,0,0,6.6Zm3.8-5.514h2.713a2.212,2.212,0,1,1,0,4.425H56.56Zm-3.8,0h2.713v4.425H52.757a2.212,2.212,0,1,1,0-4.425Z" transform="translate(-45.865 -266.542)" fill="#fff"/>
    <path id="Path_2436" data-name="Path 2436" d="M123.224,161.229h-6.73a.545.545,0,1,0,0,1.089h6.73a.545.545,0,1,0,0-1.089Z" transform="translate(-107.531 -149.523)" fill="#fff"/>
    <path id="Path_2437" data-name="Path 2437" d="M58.673,161.229H56.495a.545.545,0,1,0,0,1.089h2.178a.545.545,0,1,0,0-1.089Z" transform="translate(-51.888 -149.523)" fill="#fff"/>
    <path id="Path_2438" data-name="Path 2438" d="M306.064,369.9a.545.545,0,1,0,1.089,0v-4.356a.545.545,0,0,0-1.089,0Z" transform="translate(-283.842 -338.499)" fill="#fff"/>
    <path id="Path_2439" data-name="Path 2439" d="M306.609,53.234a.545.545,0,0,0,.545-.545V30.545a.545.545,0,0,0-1.089,0V52.69A.545.545,0,0,0,306.609,53.234Z" transform="translate(-283.842 -27.822)" fill="#fff"/>
    <path id="Path_2440" data-name="Path 2440" d="M175.742,0H161.23a4.107,4.107,0,0,0-4.1,4.1.545.545,0,0,0,1.089,0,3.017,3.017,0,0,1,3.013-3.013h14.512A3.017,3.017,0,0,1,178.755,4.1V30.023a3.017,3.017,0,0,1-3.013,3.013h-8.512a.545.545,0,0,0,0,1.089h8.512a4.107,4.107,0,0,0,4.1-4.1V4.1A4.107,4.107,0,0,0,175.742,0Z" transform="translate(-145.719)" fill="#fff"/>
    <path id="Path_2441" data-name="Path 2441" d="M354.077,49.737a2.658,2.658,0,1,0-2.658-2.658A2.661,2.661,0,0,0,354.077,49.737Zm0-4.228a1.569,1.569,0,1,1-1.569,1.569A1.571,1.571,0,0,1,354.077,45.509Z" transform="translate(-325.904 -41.195)" fill="#fff"/>
    <path id="Path_2442" data-name="Path 2442" d="M354.077,152.382a2.658,2.658,0,1,0-2.658-2.658A2.661,2.661,0,0,0,354.077,152.382Zm0-4.228a1.569,1.569,0,1,1-1.569,1.569A1.571,1.571,0,0,1,354.077,148.154Z" transform="translate(-325.904 -136.387)" fill="#fff"/>
    <path id="Path_2443" data-name="Path 2443" d="M354.077,255.027a2.658,2.658,0,1,0-2.658-2.658A2.661,2.661,0,0,0,354.077,255.027Zm0-4.228a1.569,1.569,0,1,1-1.569,1.569A1.571,1.571,0,0,1,354.077,250.8Z" transform="translate(-325.904 -231.579)" fill="#fff"/>
    <path id="Path_2444" data-name="Path 2444" d="M354.077,357.672a2.658,2.658,0,1,0-2.658-2.658A2.661,2.661,0,0,0,354.077,357.672Zm0-4.228a1.569,1.569,0,1,1-1.569,1.569A1.571,1.571,0,0,1,354.077,353.444Z" transform="translate(-325.904 -326.772)" fill="#fff"/>
    <path id="Path_2445" data-name="Path 2445" d="M216.175,45.776a1.571,1.571,0,0,1,1.768.01.545.545,0,0,0,.62-.9,2.66,2.66,0,0,0-3-.017.545.545,0,0,0,.609.9Z" transform="translate(-199.692 -41.194)" fill="#fff"/>
  </g>
</svg>
