<svg xmlns="http://www.w3.org/2000/svg" width="19.585" height="15.37" viewBox="0 0 19.585 15.37">
  <g id="messages" transform="translate(-68.559 -501.898)">
    <g id="Group_120" data-name="Group 120" transform="translate(69.783 502.398)">
      <path id="Path_82" data-name="Path 82" d="M80.17,510.935q.206-.139.517-.364l.264-.19.143-.1.968-.672,3.508-2.436a4.561,4.561,0,0,0,1.167-1.176,2.532,2.532,0,0,0,.468-1.444,1.543,1.543,0,0,0-1.53-1.53,40.127,40.127,0,0,0-14.078,0,1.366,1.366,0,0,0-1.133.5,1.926,1.926,0,0,0-.4,1.243,2.237,2.237,0,0,0,.526,1.306,4.741,4.741,0,0,0,1.119,1.1q.326.23,1.961,1.363.883.611,1.54,1.07l.965.675.143.1.264.19q.311.225.517.364c.137.093.3.2.5.311a2.931,2.931,0,0,0,.55.258,1.513,1.513,0,0,0,.478.086h.019a1.513,1.513,0,0,0,.478-.086,2.882,2.882,0,0,0,.55-.258Q79.964,511.073,80.17,510.935Z" transform="translate(-70.066 -502.398)" fill="#fff" stroke="rgba(0,0,0,0)" stroke-width="1"/>
    </g>
    <g id="Group_123" data-name="Group 123" transform="translate(69.059 504.374)">
      <g id="Group_121" data-name="Group 121" transform="translate(0 2.797)">
        <path id="Path_83" data-name="Path 83" d="M86.106,510.222,82.6,512.657l-.96.667-.134.095-.258.186c-.223.161-.407.291-.557.392s-.346.224-.569.356a4.314,4.314,0,0,1-.826.384,2.862,2.862,0,0,1-1.884,0,4.349,4.349,0,0,1-.826-.384c-.224-.132-.415-.251-.571-.357s-.332-.229-.554-.389l-.264-.19-.127-.091c-.266-.187-.587-.412-.961-.672q-.659-.459-1.537-1.068c-1.1-.759-1.754-1.216-1.949-1.354a5.985,5.985,0,0,1-1.249-1.168,18.293,18.293,0,0,0,.083,7.15,2.379,2.379,0,0,0,1.945,1.825,40.846,40.846,0,0,0,13.945,0A2.366,2.366,0,0,0,87.29,516.2a19.549,19.549,0,0,0,.048-7.163A6.028,6.028,0,0,1,86.106,510.222Z" transform="translate(-69.059 -509.041)" fill="#fff" stroke="rgba(0,0,0,0)" stroke-width="1"/>
      </g>
      <g id="Group_122" data-name="Group 122" transform="translate(0.979)">
        <path id="Path_84" data-name="Path 84" d="M71.811,507.945q.325.23,1.961,1.363.883.611,1.54,1.07l.965.675.143.1.264.19q.311.225.517.364c.137.093.3.2.5.311a2.928,2.928,0,0,0,.55.258,1.513,1.513,0,0,0,.478.086h.019a1.513,1.513,0,0,0,.478-.086,2.886,2.886,0,0,0,.55-.258q.291-.172.5-.311t.517-.364l.264-.19.143-.1.968-.672,3.508-2.436a4.561,4.561,0,0,0,1.167-1.176,2.889,2.889,0,0,0,.213-.37,2.426,2.426,0,0,0-1.387-.725,45.527,45.527,0,0,0-13.843.006,2.433,2.433,0,0,0-1.4.735,3.423,3.423,0,0,0,.27.425A4.74,4.74,0,0,0,71.811,507.945Z" transform="translate(-70.422 -505.148)" fill="#fff" stroke="rgba(0,0,0,0)" stroke-width="1"/>
      </g>
    </g>
  </g>
</svg>
