<svg xmlns="http://www.w3.org/2000/svg" width="26.979" height="34.125" viewBox="0 0 26.979 34.125">
  <g id="microscope" opacity="0.404">
    <path id="Path_2446" data-name="Path 2446" d="M139.941,18.2h.7v2.445a.545.545,0,0,0,.545.545h2.193a.545.545,0,0,0,.545-.545V18.2h1.089v2.445a.545.545,0,0,0,.545.545h2.193a.545.545,0,0,0,.545-.545V18.2h.7a.545.545,0,0,0,0-1.089h-.326V9.493h1.489L154.9,12.2a3.648,3.648,0,0,1,1.628,2.814V18.7a.545.545,0,1,0,1.089,0V15.016a4.727,4.727,0,0,0-2.176-3.759l-4.881-2.782a.544.544,0,0,0-.27-.071h-1.633V5.62a.545.545,0,0,0-.545-.545H147.2V.545A.545.545,0,0,0,146.655,0h-4.381a.545.545,0,0,0-.545.545v4.53h-.917a.545.545,0,0,0-.545.545V17.108h-.326a.545.545,0,0,0,0,1.089Zm2.889,1.9h-1.1V18.2h1.1Zm4.371,0h-1.1V18.2h1.1ZM142.819,1.089h3.292V5.075h-3.292V1.089Zm-1.462,5.075h6.215V17.108h-6.215Z" transform="translate(-132.849 0)" fill="#fff"/>
    <path id="Path_2447" data-name="Path 2447" d="M73.439,192.218a2.752,2.752,0,0,0-.545,5.449v7.254H50.582l1.335-3.113a3.038,3.038,0,0,1,2.536-1.672H71.231a.545.545,0,0,0,0-1.089H69.6v-11.8a.545.545,0,0,0-.276-.474l-2.4-1.358a.545.545,0,1,0-.537.947l2.12,1.2v6.863H56.3a.545.545,0,0,0-.545.545v2.178a.545.545,0,0,0,.545.545H66.875a.545.545,0,0,0,0-1.089H56.849v-1.089h11.66v3.532H54.454a4.114,4.114,0,0,0-3.537,2.332l-1.661,3.872a.545.545,0,0,0,.5.759H73.439a.545.545,0,0,0,.545-.545v-7.8a2.752,2.752,0,0,0-.545-5.449Zm0,4.415A1.663,1.663,0,1,1,75.1,194.97,1.665,1.665,0,0,1,73.439,196.633Z" transform="translate(-49.212 -171.885)" fill="#fff"/>
  </g>
</svg>
