<svg xmlns="http://www.w3.org/2000/svg" width="34.125" height="34.125" viewBox="0 0 34.125 34.125">
  <g id="molecule" opacity="0.404">
    <path id="Path_2452" data-name="Path 2452" d="M28.135,0a5.986,5.986,0,0,0-4.271,10.184l-3.982,6.984a8.719,8.719,0,0,0-5.639,0l-3.982-6.984a5.981,5.981,0,0,0,.725-7.5.545.545,0,0,0-.908.6A4.9,4.9,0,1,1,8.692,1.9a.545.545,0,0,0,.6-.908A5.991,5.991,0,1,0,7.425,11.805l3.982,6.985a8.711,8.711,0,0,0,10.94,13.549.545.545,0,0,0-.661-.865,7.552,7.552,0,0,1-4.623,1.562,7.624,7.624,0,1,1,7.624-7.624,7.553,7.553,0,0,1-1.562,4.624.545.545,0,1,0,.865.661A8.705,8.705,0,0,0,22.718,18.79L26.7,11.805A5.99,5.99,0,1,0,28.135,0ZM8.47,11.44a5.991,5.991,0,0,0,.945-.541l3.814,6.69a8.717,8.717,0,0,0-.945.541Zm13.37,6.69a8.716,8.716,0,0,0-.945-.541l3.814-6.69a5.99,5.99,0,0,0,.945.541Zm6.294-7.239a4.9,4.9,0,1,1,4.9-4.9A4.906,4.906,0,0,1,28.135,10.891Z" fill="#fff"/>
    <ellipse id="Ellipse_93" data-name="Ellipse 93" cx="0.545" cy="0.545" rx="0.545" ry="0.545" transform="translate(14.303 29.26)" fill="#fff"/>
    <ellipse id="Ellipse_94" data-name="Ellipse 94" cx="0.545" cy="0.545" rx="0.545" ry="0.545" transform="translate(12.125 27.082)" fill="#fff"/>
  </g>
</svg>
