<svg xmlns="http://www.w3.org/2000/svg" width="32.603" height="34.125" viewBox="0 0 32.603 34.125">
  <g id="molecular" opacity="0.404">
    <path id="Path_2448" data-name="Path 2448" d="M247.414,160.747l2.122,1.225a.545.545,0,0,0,.545-.943l-2.122-1.225a.545.545,0,1,0-.545.943Z" transform="translate(-229.958 -148.133)" fill="#fff"/>
    <path id="Path_2449" data-name="Path 2449" d="M159.534,210.628a.545.545,0,0,0-.545.545v2.45a.545.545,0,0,0,1.089,0v-2.45A.545.545,0,0,0,159.534,210.628Z" transform="translate(-148.206 -195.335)" fill="#fff"/>
    <path id="Path_2450" data-name="Path 2450" d="M249.537,278.467l-2.122,1.225a.545.545,0,1,0,.545.943l2.122-1.225a.545.545,0,0,0-.545-.943Z" transform="translate(-229.96 -258.181)" fill="#fff"/>
    <path id="Path_2451" data-name="Path 2451" d="M41.089,23.325a1.99,1.99,0,0,0-1.39.565l-3.827-2.209a2,2,0,0,0-1.391-2.409V14.854a2,2,0,0,0,1.391-2.41L39.7,10.235a1.99,1.99,0,1,0-.546-.942L35.326,11.5a1.992,1.992,0,0,0-2.78,0L28.72,9.293a2,2,0,0,0-1.391-2.409V.545a.545.545,0,0,0-1.089,0V6.883a2,2,0,0,0-1.391,2.41L21.021,11.5a1.992,1.992,0,0,0-2.78,0L14.415,9.292a2,2,0,1,0-.546.943L17.7,12.444a2,2,0,0,0,1.391,2.41v4.418a2,2,0,0,0-1.391,2.41L13.869,23.89a1.99,1.99,0,1,0,.546.942l3.827-2.209a1.992,1.992,0,0,0,2.78,0l3.827,2.209a2,2,0,0,0,1.391,2.41v6.338a.545.545,0,0,0,1.089,0V27.242a2,2,0,0,0,1.391-2.41l3.827-2.209a1.992,1.992,0,0,0,2.78,0l3.827,2.209a2,2,0,1,0,1.936-1.508Zm0-15.429a.908.908,0,1,1-.908.908A.909.909,0,0,1,41.089,7.9ZM12.479,9.711a.908.908,0,1,1,.908-.908A.909.909,0,0,1,12.479,9.711Zm0,16.518a.908.908,0,1,1,.908-.908A.909.909,0,0,1,12.479,26.229Zm21.457-14.2a.908.908,0,1,1-.908.908A.909.909,0,0,1,33.936,12.025ZM26.784,7.9a.908.908,0,1,1-.908.908A.909.909,0,0,1,26.784,7.9Zm-8.06,5.037a.908.908,0,1,1,.908.908.909.909,0,0,1-.908-.908Zm.908,9.167a.908.908,0,1,1,.908-.908A.909.909,0,0,1,19.631,22.1Zm7.152,4.129a.908.908,0,1,1,.908-.908A.909.909,0,0,1,26.784,26.229Zm5.156-5.037a1.992,1.992,0,0,0,.061.489L28.174,23.89a1.992,1.992,0,0,0-2.78,0l-3.827-2.209a2,2,0,0,0-1.391-2.41V14.854a2,2,0,0,0,1.391-2.41l3.827-2.209a1.992,1.992,0,0,0,2.78,0L32,12.444a2,2,0,0,0,1.391,2.41v4.418A2,2,0,0,0,31.939,21.192Zm2,.908a.908.908,0,1,1,.908-.908A.909.909,0,0,1,33.936,22.1Zm7.153,4.129A.908.908,0,1,1,42,25.322.909.909,0,0,1,41.089,26.229Z" transform="translate(-10.482)" fill="#fff"/>
  </g>
</svg>
