<svg xmlns="http://www.w3.org/2000/svg" width="34.125" height="23.66" viewBox="0 0 34.125 23.66">
  <g id="observation" opacity="0.404">
    <path id="Path_2453" data-name="Path 2453" d="M174.407,152.693a3.235,3.235,0,0,0-2.42-.027v-1.33a.545.545,0,1,0-1.089,0v1.33a3.256,3.256,0,0,0-4.184,4.285l1.665,4.021A2.143,2.143,0,0,0,171.442,162a2.141,2.141,0,0,0,3.063-1.028l1.665-4.021A3.262,3.262,0,0,0,174.407,152.693Zm.757,3.841-1.666,4.021a1.053,1.053,0,0,1-1.687.371.544.544,0,0,0-.739,0,1.052,1.052,0,0,1-1.687-.371l-1.665-4.021a2.169,2.169,0,0,1,3.378-2.51.582.582,0,0,0,.075.051l.005,0a.539.539,0,0,0,.077.035l.012,0a.532.532,0,0,0,.079.02l.014,0a.5.5,0,0,0,.165,0l.014,0a.53.53,0,0,0,.078-.02l.012,0a.541.541,0,0,0,.076-.034l.006,0a.541.541,0,0,0,.073-.05,2.184,2.184,0,0,1,1.377-.492,2.171,2.171,0,0,1,2,3Z" transform="translate(-154.38 -145.075)" fill="#fff"/>
    <ellipse id="Ellipse_95" data-name="Ellipse 95" cx="0.545" cy="0.545" rx="0.545" ry="0.545" transform="translate(18.277 10.139)" fill="#fff"/>
    <path id="Path_2454" data-name="Path 2454" d="M26.985,114.44a20.863,20.863,0,0,0-3.976-1.561.54.54,0,0,0-.093-.026,22.176,22.176,0,0,0-11.7,0,.539.539,0,0,0-.091.025,20.869,20.869,0,0,0-3.976,1.561,18.716,18.716,0,0,0-7.053,6.254.545.545,0,0,0,0,.6,18.715,18.715,0,0,0,7.053,6.254,20.867,20.867,0,0,0,3.984,1.563.54.54,0,0,0,.073.02,22.174,22.174,0,0,0,11.727,0,.532.532,0,0,0,.072-.02,20.865,20.865,0,0,0,3.984-1.563,18.715,18.715,0,0,0,7.053-6.254.544.544,0,0,0,0-.6A18.715,18.715,0,0,0,26.985,114.44ZM1.2,120.993a17.974,17.974,0,0,1,7.977-6.286,10.1,10.1,0,0,0,0,12.572A17.976,17.976,0,0,1,1.2,120.993Zm21.382,7.094a20.9,20.9,0,0,1-11.041,0,8.988,8.988,0,0,1,0-14.189,20.9,20.9,0,0,1,11.041,0,8.988,8.988,0,0,1,0,14.189Zm2.364-.809a10.1,10.1,0,0,0,0-12.572,17.974,17.974,0,0,1,7.977,6.286A17.975,17.975,0,0,1,24.949,127.279Z" transform="translate(-0.002 -109.163)" fill="#fff"/>
    <path id="Path_2455" data-name="Path 2455" d="M98.227,346.671a23.736,23.736,0,0,1-21.51,0,.545.545,0,0,0-.5.967,24.825,24.825,0,0,0,22.512,0,.545.545,0,1,0-.5-.967Z" transform="translate(-70.409 -326.676)" fill="#fff"/>
    <path id="Path_2456" data-name="Path 2456" d="M.544,79.847a.543.543,0,0,0,.389-.163,21.087,21.087,0,0,1,5.374-3.951,23.458,23.458,0,0,1,10.755-2.576,23.8,23.8,0,0,1,9.14,1.821.545.545,0,1,0,.422-1,24.9,24.9,0,0,0-9.562-1.906,24.552,24.552,0,0,0-11.256,2.7A22.176,22.176,0,0,0,.155,78.921a.545.545,0,0,0,.389.926Z" transform="translate(0.001 -72.067)" fill="#fff"/>
    <path id="Path_2457" data-name="Path 2457" d="M383.683,111.7a21.036,21.036,0,0,1,5.068,3.789.545.545,0,1,0,.778-.762,22.123,22.123,0,0,0-5.33-3.986.545.545,0,0,0-.516.959Z" transform="translate(-355.559 -107.876)" fill="#fff"/>
  </g>
</svg>
