<svg xmlns="http://www.w3.org/2000/svg" width="34.125" height="34.125" viewBox="0 0 34.125 34.125">
  <g id="petri-dish" opacity="0.404">
    <path id="Path_2458" data-name="Path 2458" d="M29.128,5A17.063,17.063,0,1,0,5,29.128,17.063,17.063,0,1,0,29.128,5ZM17.063,33.036A15.973,15.973,0,1,1,33.036,17.063,15.991,15.991,0,0,1,17.063,33.036Z" fill="#fff"/>
    <ellipse id="Ellipse_96" data-name="Ellipse 96" cx="0.545" cy="0.545" rx="0.545" ry="0.545" transform="translate(10.11 19.241)" fill="#fff"/>
    <ellipse id="Ellipse_97" data-name="Ellipse 97" cx="0.545" cy="0.545" rx="0.545" ry="0.545" transform="translate(17.404 11.759)" fill="#fff"/>
    <path id="Path_2459" data-name="Path 2459" d="M275.871,197.767a1.634,1.634,0,1,0,1.634-1.634A1.635,1.635,0,0,0,275.871,197.767Zm2.178,0a.545.545,0,1,1-.545-.545A.545.545,0,0,1,278.049,197.767Z" transform="translate(-255.841 -181.892)" fill="#fff"/>
    <path id="Path_2460" data-name="Path 2460" d="M214.134,70a1.634,1.634,0,1,0,1.634,1.634A1.635,1.635,0,0,0,214.134,70Zm0,2.178a.545.545,0,1,1,.545-.545A.545.545,0,0,1,214.134,72.178Z" transform="translate(-197.071 -64.918)" fill="#fff"/>
    <path id="Path_2461" data-name="Path 2461" d="M356.634,215.767A1.634,1.634,0,1,0,355,214.134,1.635,1.635,0,0,0,356.634,215.767Zm0-2.178a.545.545,0,1,1-.545.545A.545.545,0,0,1,356.634,213.589Z" transform="translate(-329.225 -197.071)" fill="#fff"/>
    <path id="Path_2462" data-name="Path 2462" d="M110.056,309.727a1.634,1.634,0,1,0,1.634,1.634A1.635,1.635,0,0,0,110.056,309.727Zm0,2.178a.545.545,0,1,1,.545-.545A.545.545,0,0,1,110.056,311.905Z" transform="translate(-100.55 -287.239)" fill="#fff"/>
    <path id="Path_2463" data-name="Path 2463" d="M200.223,330.445a2.723,2.723,0,1,0-2.723-2.723A2.726,2.726,0,0,0,200.223,330.445Zm0-4.356a1.634,1.634,0,1,1-1.634,1.634A1.635,1.635,0,0,1,200.223,326.089Z" transform="translate(-183.16 -301.403)" fill="#fff"/>
    <path id="Path_2464" data-name="Path 2464" d="M170.223,210.445a2.723,2.723,0,1,0-2.723-2.723A2.726,2.726,0,0,0,170.223,210.445Zm0-4.356a1.634,1.634,0,1,1-1.634,1.634A1.635,1.635,0,0,1,170.223,206.089Z" transform="translate(-155.338 -190.116)" fill="#fff"/>
    <path id="Path_2465" data-name="Path 2465" d="M298.581,115.942a2.723,2.723,0,1,0-2.723,2.723A2.726,2.726,0,0,0,298.581,115.942Zm-4.356,0a1.634,1.634,0,1,1,1.634,1.634A1.635,1.635,0,0,1,294.225,115.942Z" transform="translate(-271.852 -104.999)" fill="#fff"/>
    <path id="Path_2466" data-name="Path 2466" d="M44.884,30a14.884,14.884,0,1,0,9.69,26.173.545.545,0,1,0-.71-.826,13.813,13.813,0,1,1,1.482-1.482.545.545,0,0,0,.826.71A14.877,14.877,0,0,0,44.884,30Z" transform="translate(-27.822 -27.822)" fill="#fff"/>
    <path id="Path_2467" data-name="Path 2467" d="M111.313,107.864a3.449,3.449,0,1,0-6.624,1.347.545.545,0,0,0,1-.426,2.358,2.358,0,1,1,1.252,1.252.545.545,0,1,0-.426,1,3.45,3.45,0,0,0,4.8-3.176Z" transform="translate(-96.834 -96.834)" fill="#fff"/>
  </g>
</svg>
