<svg xmlns="http://www.w3.org/2000/svg" width="34.125" height="17.372" viewBox="0 0 34.125 17.372">
  <g id="rat" opacity="0.404">
    <path id="Path_2468" data-name="Path 2468" d="M31.5,123.347H28.526a11.1,11.1,0,0,0-3.748-5.59,10.921,10.921,0,0,0-6.86-2.39A11.06,11.06,0,0,0,12.66,116.7l-2.144,1.163v-.566a1.894,1.894,0,1,0-3.788,0v2.621l-1.61.873v-2.042A.8.8,0,0,1,5.611,118a.545.545,0,1,0-.424-1,1.891,1.891,0,0,0-1.157,1.745v2.632L.408,123.344l-.122.069-.012.007a.545.545,0,0,0,.271,1.017H31.5a1.531,1.531,0,0,1,0,3.062H11.64a2.62,2.62,0,1,0,0,5.24H22.484a.545.545,0,1,0,0-1.089H11.64a1.531,1.531,0,0,1,0-3.062H31.5a2.62,2.62,0,0,0,0-5.241Zm-13.562,0a2.363,2.363,0,0,1,2.3-1.815h2.378a.545.545,0,0,0,0-1.089H20.238a3.454,3.454,0,0,0-3.405,2.9H2.685l2.147-1.164,0,0,2.7-1.463a.545.545,0,0,0,.285-.479v-2.945a.8.8,0,1,1,1.61,0v1.481a.545.545,0,0,0,.8.479l2.948-1.6a9.956,9.956,0,0,1,14.21,5.692H17.942Z" transform="translate(0 -115.367)" fill="#fff"/>
    <ellipse id="Ellipse_98" data-name="Ellipse 98" cx="0.545" cy="0.545" rx="0.545" ry="0.545" transform="translate(14.684 4.524)" fill="#fff"/>
    <ellipse id="Ellipse_99" data-name="Ellipse 99" cx="0.545" cy="0.545" rx="0.545" ry="0.545" transform="translate(16.79 2.717)" fill="#fff"/>
  </g>
</svg>
