<svg xmlns="http://www.w3.org/2000/svg" width="34.125" height="34.125" viewBox="0 0 34.125 34.125">
  <g id="satellite" opacity="0.404">
    <path id="Path_2469" data-name="Path 2469" d="M33.965,27.4l-8.86-8.86a.544.544,0,0,0-.77,0L22.122,20.75l-.77-.77,5.817-5.817a.544.544,0,0,0,0-.77l-.27-.27,2.182-2.182a.544.544,0,0,0,.157-.432l-.228-2.654a2.1,2.1,0,0,0-.549-1.18l-1.01-1.01a2.1,2.1,0,0,0-1.18-.549l-2.654-.228H23.54l-.035,0-.022,0-.034.007-.021.005-.035.011-.018.006-.036.015-.016.007-.036.02-.014.008L23.238,5l-.011.008a.557.557,0,0,0-.043.039L21,7.227l-.27-.27a.544.544,0,0,0-.77,0l-5.817,5.817-.77-.77L15.588,9.79a.544.544,0,0,0,0-.77L6.728.16a.544.544,0,0,0-.77,0l-5.2,5.2a.544.544,0,0,0,0,.77l8.86,8.86a.544.544,0,0,0,.77,0L12.6,12.773l.77.77L7.788,19.13a.544.544,0,0,0,0,.77l1.936,1.936-.874.874a11.02,11.02,0,0,0-6.464-2.073,11.186,11.186,0,0,0-1.936.169.544.544,0,0,0-.291.921l2.923,2.923L2.6,29.392a.544.544,0,0,0,.157.441l1.54,1.54a.544.544,0,0,0,.385.16l.056,0,4.741-.487L12.4,33.966a.544.544,0,0,0,.921-.291,11.127,11.127,0,0,0-1.695-8.091l.924-.924,1.677,1.677a.544.544,0,0,0,.77,0l5.587-5.587.77.77-2.214,2.214a.544.544,0,0,0,0,.77L28,33.364a.544.544,0,0,0,.77,0l5.2-5.2a.544.544,0,0,0,0-.77ZM14.433,9.4l-.962.962-3.66-3.66.962-.962,3.66,3.66ZM1.916,5.742l.962-.962,2.5,2.5a.545.545,0,0,0,.77-.77l-2.5-2.5.962-.962,2.5,2.5a.545.545,0,0,0,.77-.77l-2.5-2.5.962-.962L10,4.975,8.656,6.322,6.923,8.054,5.576,9.4l-3.66-3.66Zm8.09,8.09-3.66-3.66.962-.962,3.66,3.66-.962.962Zm2.214-2.214-.482.482L8.078,8.44l.962-.962,3.66,3.66-.481.481ZM23.569,6.2l2.471,2.471a.545.545,0,0,0,.77-.77l-1.8-1.8,1.167.1a1.063,1.063,0,0,1,.5.234l1.01,1.01a1.063,1.063,0,0,1,.234.5l.207,2.4-2,2L21.772,8l1.8-1.8ZM4.879,30.42,3.7,29.246l.37-3.6L8.481,30.05l-3.6.37Zm7.5,1.985L1.72,21.748q.333-.022.666-.022a9.937,9.937,0,0,1,6.167,2.122l.011.009a10.179,10.179,0,0,1,.9.8A10.031,10.031,0,0,1,12.376,32.4ZM10.969,24.7q-.345-.421-.733-.81-.257-.257-.529-.5l.787-.787,1.284,1.284-.809.809Zm3.641.483L8.943,19.515l11.4-11.4,5.666,5.666-11.4,11.4Zm5.683-1.063.962-.962,2.5,2.5a.545.545,0,1,0,.77-.77l-2.5-2.5.481-.481.482-.482,2.5,2.5a.545.545,0,1,0,.77-.77l-2.5-2.5.962-.962,3.66,3.66-4.427,4.427-3.66-3.66Zm8.09,8.09-3.66-3.66.962-.962,3.66,3.66Zm1.732-1.732-3.66-3.66.962-.962,3.66,3.66Zm1.732-1.732-3.66-3.66.962-.962,3.66,3.66Z" transform="translate(0.001 0)" fill="#fff"/>
    <path id="Path_2470" data-name="Path 2470" d="M15.428,419.449a.545.545,0,0,0-.77.77l1.54,1.54a.545.545,0,0,0,.77-.77Z" transform="translate(-13.446 -388.846)" fill="#fff"/>
  </g>
</svg>
  