<svg xmlns="http://www.w3.org/2000/svg" width="34.125" height="34.125" viewBox="0 0 34.125 34.125">
  <g id="scientist" opacity="0.404">
    <path id="Path_2471" data-name="Path 2471" d="M102.985,16.594a8.3,8.3,0,1,0-8.3-8.3A8.306,8.306,0,0,0,102.985,16.594Zm0-15.5A7.208,7.208,0,1,1,95.777,8.3,7.216,7.216,0,0,1,102.985,1.089Z" transform="translate(-87.813)" fill="#fff"/>
    <path id="Path_2472" data-name="Path 2472" d="M21.542,259.959h-1.3a.545.545,0,0,0-.545.545v1.107l-3.977,5.436v-4.136l5.176-7.075a14.111,14.111,0,0,1,3.046,1.856.545.545,0,0,0,.679-.852,15.17,15.17,0,0,0-15.126-2.194.54.54,0,0,0-.114.047,15.208,15.208,0,0,0-4.369,2.767l-.023.015a.543.543,0,0,0-.108.105A15.133,15.133,0,0,0,0,268.714a.545.545,0,1,0,1.089,0,14.039,14.039,0,0,1,4.148-9.972l1.524,2.083a.545.545,0,0,0,.439.223h2.36v.74a.545.545,0,0,0,.105.322l5.066,6.925.007.009.026.031.014.015.031.03.011.01a.548.548,0,0,0,.047.035l.007,0,.045.026.014.007.04.018.017.006.041.012.017,0,.044.008.016,0a.514.514,0,0,0,.122,0l.016,0,.044-.008.017,0,.041-.012.017-.006.04-.018.014-.007q.023-.012.045-.026l.007,0a.548.548,0,0,0,.047-.035l.011-.01.031-.03.014-.015.026-.031.007-.009,5.066-6.925a.545.545,0,0,0,.105-.322v-.74h.76a.545.545,0,0,0,0-1.089Zm-6.915,7.088-3.977-5.436V260.5a.545.545,0,0,0-.545-.545H7.477L6.043,258a14.116,14.116,0,0,1,3.413-2.155l5.17,7.067v4.136Zm.545-5.236-4.67-6.383a14.163,14.163,0,0,1,9.346-.008l-4.676,6.391Z" transform="translate(0 -235.133)" fill="#fff"/>
    <path id="Path_2473" data-name="Path 2473" d="M133.541,79.061a.545.545,0,0,0,.545-.545.545.545,0,1,1,1.089,0,.545.545,0,0,0,.545.545h3.024a1.708,1.708,0,0,0,1.706-1.706V75.666a1.708,1.708,0,0,0-1.706-1.706h-8.226a1.708,1.708,0,0,0-1.706,1.706v1.688a1.708,1.708,0,0,0,1.706,1.706ZM129.9,77.354V75.666a.618.618,0,0,1,.617-.617h8.226a.618.618,0,0,1,.617.617v1.688a.618.618,0,0,1-.617.617h-2.573a1.634,1.634,0,0,0-3.081,0h-2.573A.618.618,0,0,1,129.9,77.354Z" transform="translate(-119.458 -68.59)" fill="#fff"/>
    <path id="Path_2474" data-name="Path 2474" d="M318.331,234.831v-5.744a.545.545,0,0,0-.545-.545h-2.756a.545.545,0,0,0-.545.545v5.744a5.786,5.786,0,1,0,3.845,0Zm-1.923,10.154a4.7,4.7,0,0,1-4.664-4.152h5.549a.545.545,0,0,0,0-1.089h-5.549a4.705,4.705,0,0,1,3.429-3.986.544.544,0,0,0,.4-.525v-5.6h1.667v5.6a.545.545,0,0,0,.4.525,4.705,4.705,0,0,1,3.429,3.986h-1.6a.545.545,0,0,0,0,1.089h1.6A4.7,4.7,0,0,1,316.409,244.984Z" transform="translate(-288.07 -211.948)" fill="#fff"/>
  </g>
</svg>
