<svg xmlns="http://www.w3.org/2000/svg" width="20.125" height="28" viewBox="0 0 20.125 28">
  <path id="second" d="M8.439,10.883l6.018-9.415V0H6.032L4.422,2.566,2.744,0H-5.668V1.48L.6,10.883H3.465v1.883a7.656,7.656,0,1,0,2.188,0V10.883Zm1.589,9.461a5.469,5.469,0,1,1-5.469-5.469A5.475,5.475,0,0,1,10.027,20.344ZM7.242,2.187H11.4L7.829,7.775,5.74,4.581Zm-9.808,0H1.561L5.818,8.7H1.772Zm7.1,15.039a2.209,2.209,0,0,1,2.215,2.2c0,.428-.166.892-.942,1.849h1v2.188H2.316V21.843l.317-.32a18.706,18.706,0,0,0,1.836-2.11H2.316V17.227Zm0,0" transform="translate(5.668)" fill="#e87173"/>
</svg>
