<svg xmlns="http://www.w3.org/2000/svg" width="34.125" height="34.125" viewBox="0 0 34.125 34.125">
  <g id="solar-system" opacity="0.404">
    <path id="Path_2475" data-name="Path 2475" d="M152.672,151.718l-.546-.178a.545.545,0,0,0-.337,1.036l.545.177a5.253,5.253,0,0,0,0,2.2l-.545.177a.545.545,0,1,0,.337,1.036l.546-.178a5.289,5.289,0,0,0,1.293,1.778l-.338.466a.545.545,0,1,0,.881.64l.338-.465a5.225,5.225,0,0,0,2.091.682v.573a.545.545,0,0,0,1.089,0v-.573a5.225,5.225,0,0,0,2.091-.682l.338.465a.545.545,0,1,0,.881-.64l-.338-.466a5.289,5.289,0,0,0,1.293-1.778l.546.178a.545.545,0,0,0,.337-1.036l-.545-.177a5.253,5.253,0,0,0,0-2.2l.545-.177a.545.545,0,0,0-.337-1.036l-.546.178A5.289,5.289,0,0,0,161,149.94l.338-.466a.545.545,0,1,0-.881-.64l-.338.465a5.225,5.225,0,0,0-2.091-.682v-.573a.545.545,0,0,0-1.089,0v.573a5.224,5.224,0,0,0-2.091.682l-.338-.465a.545.545,0,1,0-.881.64l.338.466A5.292,5.292,0,0,0,152.672,151.718Zm4.81-2.04a4.175,4.175,0,1,1-4.175,4.175A4.18,4.18,0,0,1,157.482,149.678Z" transform="translate(-140.419 -136.791)" fill="#fff"/>
    <path id="Path_2476" data-name="Path 2476" d="M29.128,5A17.063,17.063,0,1,0,5,29.128a17.072,17.072,0,0,0,20.395,2.829.545.545,0,1,0-.532-.95,15.969,15.969,0,1,1,6.146-6.146.545.545,0,1,0,.95.532A17.07,17.07,0,0,0,29.128,5Z" fill="#fff"/>
    <path id="Path_2477" data-name="Path 2477" d="M358.771,355.867a2.9,2.9,0,1,0,2.9,2.9A2.908,2.908,0,0,0,358.771,355.867Zm0,4.719a1.815,1.815,0,1,1,1.815-1.815A1.817,1.817,0,0,1,358.771,360.586Z" transform="translate(-330.029 -330.029)" fill="#fff"/>
    <path id="Path_2478" data-name="Path 2478" d="M77.156,93.709a11.708,11.708,0,1,0,3.978-19.171.545.545,0,1,0,.411,1.009,10.619,10.619,0,1,1-5.989,5.983.545.545,0,1,0-1.013-.4A11.709,11.709,0,0,0,77.156,93.709Z" transform="translate(-68.372 -68.368)" fill="#fff"/>
    <path id="Path_2479" data-name="Path 2479" d="M89.186,86.282a2.9,2.9,0,1,0,2.054.851A2.885,2.885,0,0,0,89.186,86.282ZM90.47,90.47a1.815,1.815,0,1,1,0-2.567A1.8,1.8,0,0,1,90.47,90.47Z" transform="translate(-80.017 -80.017)" fill="#fff"/>
  </g>
</svg>
