<svg xmlns="http://www.w3.org/2000/svg" width="34.126" height="34.126" viewBox="0 0 34.126 34.126">
  <g id="thermometer" opacity="0.404">
    <path id="Path_2480" data-name="Path 2480" d="M326.471,30.925a3.267,3.267,0,0,0-4.621,0l-3.08,3.08a.545.545,0,0,0,0,.77l3.851,3.851a.545.545,0,0,0,.77,0l.77-.77,2.31-2.31A3.271,3.271,0,0,0,326.471,30.925Zm-4.621,5.391.385-.385a.545.545,0,0,0-.77-.77l-.385.385-1.155-1.155.385-.385a2.178,2.178,0,1,1,3.081,3.08l-.385.385Zm3.85-1.54-.59.59a3.26,3.26,0,0,0-3.08-3.08l.59-.59a2.178,2.178,0,1,1,3.08,3.08Z" transform="translate(-295.477 -27.792)" fill="#fff"/>
    <path id="Path_2481" data-name="Path 2481" d="M32.535,1.593a5.451,5.451,0,0,0-7.7,0L19.186,7.24a.545.545,0,0,0,0,.77l1.155,1.155L18.417,11.09,3.527,25.979a3.269,3.269,0,0,0-.844,3.155l-2.2,2.2a1.634,1.634,0,1,0,2.31,2.31l2.2-2.2a3.285,3.285,0,0,0,.846.111,3.246,3.246,0,0,0,2.31-.957l3.337-3.337a.545.545,0,0,0-.77-.77L7.378,29.83A2.178,2.178,0,0,1,4.3,26.75l.642-.642.128.128a.545.545,0,0,0,.77-.77l-.128-.128L7.25,23.8l.128.128a.545.545,0,1,0,.77-.77l-.128-.128,1.54-1.54.128.128a.545.545,0,0,0,.77-.77l-.128-.128,1.54-1.54.128.128a.545.545,0,0,0,.77-.77l-.128-.128,1.54-1.54.128.128a.545.545,0,0,0,.77-.77l-.128-.128,1.54-1.54.128.128a.545.545,0,1,0,.77-.77l-.128-.128,1.54-1.54.128.128a.545.545,0,1,0,.77-.77l-.128-.128,1.54-1.54,1.155,1.155L5.146,28.211a.545.545,0,0,0,.77.77l17.12-17.12,1.155,1.155L12.255,24.953a.545.545,0,0,0,.77.77L24.962,13.786l1.155,1.155a.545.545,0,0,0,.77,0l5.647-5.647a5.452,5.452,0,0,0,0-7.7ZM2.02,32.878a.545.545,0,1,1-.77-.77l1.925-1.925a3.271,3.271,0,0,0,.352.418,3.3,3.3,0,0,0,.417.353L2.02,32.878ZM31.765,8.524,26.5,13.786l-1.155-1.155-1.925-1.925L21.5,8.781,20.341,7.625,25.6,2.363a4.356,4.356,0,0,1,6.161,6.161Z" transform="translate(-0.001)" fill="#fff"/>
  </g>
</svg>
